ffmpeg version 4.4.2-0ubuntu0.22.04.1 Copyright (c) 2000-2021 the FFmpeg developers
  built with gcc 11 (Ubuntu 11.2.0-19ubuntu1)
  configuration: --prefix=/usr --extra-version=0ubuntu0.22.04.1 --toolchain=hardened --libdir=/usr/lib/x86_64-linux-gnu --incdir=/usr/include/x86_64-linux-gnu --arch=amd64 --enable-gpl --disable-stripping --enable-gnutls --enable-ladspa --enable-libaom --enable-libass --enable-libbluray --enable-libbs2b --enable-libcaca --enable-libcdio --enable-libcodec2 --enable-libdav1d --enable-libflite --enable-libfontconfig --enable-libfreetype --enable-libfribidi --enable-libgme --enable-libgsm --enable-libjack --enable-libmp3lame --enable-libmysofa --enable-libopenjpeg --enable-libopenmpt --enable-libopus --enable-libpulse --enable-librabbitmq --enable-librubberband --enable-libshine --enable-libsnappy --enable-libsoxr --enable-libspeex --enable-libsrt --enable-libssh --enable-libtheora --enable-libtwolame --enable-libvidstab --enable-libvorbis --enable-libvpx --enable-libwebp --enable-libx265 --enable-libxml2 --enable-libxvid --enable-libzimg --enable-libzmq --enable-libzvbi --enable-lv2 --enable-omx --enable-openal --enable-opencl --enable-opengl --enable-sdl2 --enable-pocketsphinx --enable-librsvg --enable-libmfx --enable-libdc1394 --enable-libdrm --enable-libiec61883 --enable-chromaprint --enable-frei0r --enable-libx264 --enable-shared
  libavutil      56. 70.100 / 56. 70.100
  libavcodec     58.134.100 / 58.134.100
  libavformat    58. 76.100 / 58. 76.100
  libavdevice    58. 13.100 / 58. 13.100
  libavfilter     7.110.100 /  7.110.100
  libswscale      5.  9.100 /  5.  9.100
  libswresample   3.  9.100 /  3.  9.100
  libpostproc    55.  9.100 / 55.  9.100
Input #0, flv, from '/storage/32426326/20250709/32426326-20250709-135625-136.flv':
  Metadata:
    audiochannels   : 2
    5.1             : false
    7.1             : false
    fps             : 60
    4.1             : false
    4.0             : false
    displayHeight   : 1440
    2.1             : false
    3.1             : false
    cdn_ip          : 192.168.252.3
    displayWidth    : 2560
    encoder         : obs-output module (libobs version 31.0.2)
    fileSize        : 0
    Title           : 技术主播没有GG
    Artist          : 蓝音BuBuLine (32426326)
    Comment         : mikufans直播间 32426326 的直播录像
                    : 主播名: 蓝音BuBuLine
                    : 直播标题: 技术主播没有GG
                    : 直播分区: 单机游戏·主机游戏
                    : 录制时间: 2025-07-09T13:56:25.1566415+00:00
                    : 直播服务器:
                    : d1--ov-gotcha07.bilivideo.com [156.59.188.243]
                    : 
                    : 使用 mikufans录播姬 录制 https://rec.danmuji.org
                    : 录播姬版本: 2.17.3
    RecordedBy      : BililiveRecorder mikufans录播姬
    RecordedFrom    : d1--ov-gotcha07.bilivideo.com
    StreamServers   : d1--ov-gotcha07.bilivideo.com [156.59.188.243]
    RecorderVersion : 2.17.3+Branch.tags-v2.17.3.Sha.96407e2eba9a597dd9997c6fb731725f4294a371
    StartTime       : Wed, 09 Jul 2025 13:56:25 +0000
    RoomId          : 32426326
    ShortId         : 0
    Name            : 蓝音BuBuLine
    StreamTitle     : 技术主播没有GG
    AreaNameParent  : 单机游戏
    AreaNameChild   : 主机游戏
  Duration: 06:47:18.88, start: 0.035000, bitrate: 8892 kb/s
  Stream #0:0: Video: h264 (High), yuv420p(tv, bt709, progressive), 2560x1440 [SAR 1:1 DAR 16:9], 10240 kb/s, 60 fps, 60 tbr, 1k tbn, 120 tbc
  Stream #0:1: Audio: aac (LC), 48000 Hz, stereo, fltp, 196 kb/s
Stream mapping:
  Stream #0:0 -> #0:0 (h264 (native) -> png (native))
Press [q] to stop, [?] for help
Output #0, image2, to '/storage/32426326/20250709/32426326-20250709-135625-136.all.thumb.png':
  Metadata:
    audiochannels   : 2
    5.1             : false
    7.1             : false
    fps             : 60
    4.1             : false
    4.0             : false
    displayHeight   : 1440
    2.1             : false
    3.1             : false
    cdn_ip          : 192.168.252.3
    displayWidth    : 2560
    AreaNameChild   : 主机游戏
    fileSize        : 0
    Title           : 技术主播没有GG
    Artist          : 蓝音BuBuLine (32426326)
    Comment         : mikufans直播间 32426326 的直播录像
                    : 主播名: 蓝音BuBuLine
                    : 直播标题: 技术主播没有GG
                    : 直播分区: 单机游戏·主机游戏
                    : 录制时间: 2025-07-09T13:56:25.1566415+00:00
                    : 直播服务器:
                    : d1--ov-gotcha07.bilivideo.com [156.59.188.243]
                    : 
                    : 使用 mikufans录播姬 录制 https://rec.danmuji.org
                    : 录播姬版本: 2.17.3
    RecordedBy      : BililiveRecorder mikufans录播姬
    RecordedFrom    : d1--ov-gotcha07.bilivideo.com
    StreamServers   : d1--ov-gotcha07.bilivideo.com [156.59.188.243]
    RecorderVersion : 2.17.3+Branch.tags-v2.17.3.Sha.96407e2eba9a597dd9997c6fb731725f4294a371
    StartTime       : Wed, 09 Jul 2025 13:56:25 +0000
    RoomId          : 32426326
    ShortId         : 0
    Name            : 蓝音BuBuLine
    StreamTitle     : 技术主播没有GG
    AreaNameParent  : 单机游戏
    encoder         : Lavf58.76.100
  Stream #0:0: Video: png, rgb24(pc, gbr/bt709/bt709, progressive), 2560x1440 [SAR 1:1 DAR 16:9], q=2-31, 200 kb/s, 60 fps, 60 tbn
    Metadata:
      encoder         : Lavc58.134.100 png
frame=    1 fps=0.0 q=0.0 size=N/A time=00:00:00.00 bitrate=N/A speed=   0x    frame=    1 fps=0.0 q=-0.0 Lsize=N/A time=00:00:00.01 bitrate=N/A speed=0.0273x    
video:3483kB audio:0kB subtitle:0kB other streams:0kB global headers:0kB muxing overhead: unknown
ffmpeg version 4.4.2-0ubuntu0.22.04.1 Copyright (c) 2000-2021 the FFmpeg developers
  built with gcc 11 (Ubuntu 11.2.0-19ubuntu1)
  configuration: --prefix=/usr --extra-version=0ubuntu0.22.04.1 --toolchain=hardened --libdir=/usr/lib/x86_64-linux-gnu --incdir=/usr/include/x86_64-linux-gnu --arch=amd64 --enable-gpl --disable-stripping --enable-gnutls --enable-ladspa --enable-libaom --enable-libass --enable-libbluray --enable-libbs2b --enable-libcaca --enable-libcdio --enable-libcodec2 --enable-libdav1d --enable-libflite --enable-libfontconfig --enable-libfreetype --enable-libfribidi --enable-libgme --enable-libgsm --enable-libjack --enable-libmp3lame --enable-libmysofa --enable-libopenjpeg --enable-libopenmpt --enable-libopus --enable-libpulse --enable-librabbitmq --enable-librubberband --enable-libshine --enable-libsnappy --enable-libsoxr --enable-libspeex --enable-libsrt --enable-libssh --enable-libtheora --enable-libtwolame --enable-libvidstab --enable-libvorbis --enable-libvpx --enable-libwebp --enable-libx265 --enable-libxml2 --enable-libxvid --enable-libzimg --enable-libzmq --enable-libzvbi --enable-lv2 --enable-omx --enable-openal --enable-opencl --enable-opengl --enable-sdl2 --enable-pocketsphinx --enable-librsvg --enable-libmfx --enable-libdc1394 --enable-libdrm --enable-libiec61883 --enable-chromaprint --enable-frei0r --enable-libx264 --enable-shared
  libavutil      56. 70.100 / 56. 70.100
  libavcodec     58.134.100 / 58.134.100
  libavformat    58. 76.100 / 58. 76.100
  libavdevice    58. 13.100 / 58. 13.100
  libavfilter     7.110.100 /  7.110.100
  libswscale      5.  9.100 /  5.  9.100
  libswresample   3.  9.100 /  3.  9.100
  libpostproc    55.  9.100 / 55.  9.100
[flv @ 0x557bc6f6afc0] Auto-inserting h264_mp4toannexb bitstream filter
Input #0, concat, from '/storage/32426326/20250709/32426326-20250709-135625-136.all.concat.txt':
  Duration: N/A, start: 0.000000, bitrate: 10436 kb/s
  Stream #0:0: Video: h264 (High), yuv420p(tv, bt709, progressive), 2560x1440 [SAR 1:1 DAR 16:9], 10240 kb/s, 60 fps, 60 tbr, 1k tbn, 120 tbc
  Stream #0:1: Audio: aac (LC), 48000 Hz, stereo, fltp, 196 kb/s
Output #0, flv, to '/storage/32426326/20250709/32426326-20250709-135625-136.all.flv':
  Metadata:
    encoder         : Lavf58.76.100
  Stream #0:0: Video: h264 (High) ([7][0][0][0] / 0x0007), yuv420p(tv, bt709, progressive), 2560x1440 [SAR 1:1 DAR 16:9], q=2-31, 10240 kb/s, 60 fps, 60 tbr, 1k tbn, 1k tbc
  Stream #0:1: Audio: aac (LC) ([10][0][0][0] / 0x000A), 48000 Hz, stereo, fltp, 196 kb/s
Stream mapping:
  Stream #0:0 -> #0:0 (copy)
  Stream #0:1 -> #0:1 (copy)
Press [q] to stop, [?] for help
frame=    1 fps=0.0 q=-1.0 size=       0kB time=00:00:00.00 bitrate=N/A speed=N/A    frame= 4694 fps=0.0 q=-1.0 size=   31488kB time=00:01:18.32 bitrate=3293.2kbits/s speed= 157x    frame= 8131 fps=8126 q=-1.0 size=   63488kB time=00:02:15.58 bitrate=3835.9kbits/s speed= 135x    frame= 9779 fps=6516 q=-1.0 size=   96512kB time=00:02:43.05 bitrate=4848.9kbits/s speed= 109x    frame=11689 fps=5842 q=-1.0 size=  128768kB time=00:03:14.88 bitrate=5412.9kbits/s speed=97.4x    frame=13288 fps=5313 q=-1.0 size=  161280kB time=00:03:41.49 bitrate=5965.0kbits/s speed=88.6x    frame=14799 fps=4929 q=-1.0 size=  192768kB time=00:04:06.70 bitrate=6401.1kbits/s speed=82.2x    frame=16434 fps=4692 q=-1.0 size=  226560kB time=00:04:33.90 bitrate=6776.1kbits/s speed=78.2x    frame=18100 fps=4522 q=-1.0 size=  261120kB time=00:05:01.67 bitrate=7090.7kbits/s speed=75.4x    frame=19679 fps=4370 q=-1.0 size=  294144kB time=00:05:27.96 bitrate=7347.2kbits/s speed=72.8x    frame=21286 fps=4254 q=-1.0 size=  327424kB time=00:05:54.76 bitrate=7560.7kbits/s speed=70.9x    frame=22821 fps=4146 q=-1.0 size=  359424kB time=00:06:20.34 bitrate=7741.5kbits/s speed=69.1x    frame=24433 fps=4070 q=-1.0 size=  392704kB time=00:06:47.17 bitrate=7901.0kbits/s speed=67.8x    frame=26054 fps=4006 q=-1.0 size=  426496kB time=00:07:14.19 bitrate=8046.7kbits/s speed=66.8x    frame=27658 fps=3949 q=-1.0 size=  460032kB time=00:07:40.91 bitrate=8176.3kbits/s speed=65.8x    frame=29444 fps=3924 q=-1.0 size=  496896kB time=00:08:10.65 bitrate=8296.2kbits/s speed=65.4x    frame=31190 fps=3896 q=-1.0 size=  533248kB time=00:08:39.72 bitrate=8405.1kbits/s speed=64.9x    frame=32941 fps=3873 q=-1.0 size=  569600kB time=00:09:08.88 bitrate=8501.1kbits/s speed=64.5x    frame=34698 fps=3853 q=-1.0 size=  605952kB time=00:09:38.17 bitrate=8585.5kbits/s speed=64.2x    frame=36408 fps=3830 q=-1.0 size=  641792kB time=00:10:06.66 bitrate=8666.4kbits/s speed=63.8x    frame=38166 fps=3814 q=-1.0 size=  678144kB time=00:10:35.94 bitrate=8735.6kbits/s speed=63.6x    frame=40215 fps=3827 q=-1.0 size=  715520kB time=00:11:10.07 bitrate=8747.6kbits/s speed=63.8x    frame=42019 fps=3817 q=-1.0 size=  753152kB time=00:11:40.09 bitrate=8812.8kbits/s speed=63.6x    frame=43985 fps=3822 q=-1.0 size=  787968kB time=00:12:12.84 bitrate=8808.2kbits/s speed=63.7x    frame=45773 fps=3812 q=-1.0 size=  825088kB time=00:12:42.64 bitrate=8862.8kbits/s speed=63.5x    frame=47588 fps=3804 q=-1.0 size=  862720kB time=00:13:12.88 bitrate=8913.6kbits/s speed=63.4x    frame=49428 fps=3800 q=-1.0 size=  900864kB time=00:13:43.53 bitrate=8961.2kbits/s speed=63.3x    frame=51226 fps=3792 q=-1.0 size=  938240kB time=00:14:13.46 bitrate=9005.8kbits/s speed=63.2x    frame=53041 fps=3786 q=-1.0 size=  975872kB time=00:14:43.70 bitrate=9046.4kbits/s speed=63.1x    frame=54620 fps=3765 q=-1.0 size= 1008896kB time=00:15:10.00 bitrate=9082.2kbits/s speed=62.7x    frame=56468 fps=3762 q=-1.0 size= 1047040kB time=00:15:40.78 bitrate=9117.3kbits/s speed=62.7x    frame=58317 fps=3760 q=-1.0 size= 1085440kB time=00:16:11.53 bitrate=9152.5kbits/s speed=62.6x    frame=59863 fps=3739 q=-1.0 size= 1117952kB time=00:16:37.30 bitrate=9183.0kbits/s speed=62.3x    frame=61640 fps=3733 q=-1.0 size= 1154560kB time=00:17:06.86 bitrate=9210.7kbits/s speed=62.2x    frame=63546 fps=3736 q=-1.0 size= 1194240kB time=00:17:38.61 bitrate=9241.5kbits/s speed=62.2x    frame=65220 fps=3725 q=-1.0 size= 1228800kB time=00:18:06.52 bitrate=9264.7kbits/s speed=  62x    frame=67105 fps=3726 q=-1.0 size= 1267968kB time=00:18:37.93 bitrate=9291.4kbits/s speed=62.1x    frame=68968 fps=3726 q=-1.0 size= 1306880kB time=00:19:08.94 bitrate=9318.1kbits/s speed=62.1x    frame=70638 fps=3715 q=-1.0 size= 1341952kB time=00:19:36.79 bitrate=9341.7kbits/s speed=61.9x    frame=72567 fps=3719 q=-1.0 size= 1381888kB time=00:20:08.91 bitrate=9364.1kbits/s speed=  62x    frame=74394 fps=3717 q=-1.0 size= 1419520kB time=00:20:39.34 bitrate=9382.9kbits/s speed=61.9x    frame=76570 fps=3733 q=-1.0 size= 1458944kB time=00:21:15.61 bitrate=9369.4kbits/s speed=62.2x    frame=78780 fps=3749 q=-1.0 size= 1496576kB time=00:21:52.44 bitrate=9341.3kbits/s speed=62.5x    frame=80637 fps=3748 q=-1.0 size= 1534976kB time=00:22:23.36 bitrate=9360.4kbits/s speed=62.4x    frame=82289 fps=3738 q=-1.0 size= 1569536kB time=00:22:50.87 bitrate=9379.1kbits/s speed=62.3x    frame=84177 fps=3739 q=-1.0 size= 1608448kB time=00:23:22.31 bitrate=9396.2kbits/s speed=62.3x    frame=85965 fps=3735 q=-1.0 size= 1645568kB time=00:23:52.13 bitrate=9412.9kbits/s speed=62.2x    frame=87575 fps=3724 q=-1.0 size= 1679104kB time=00:24:18.92 bitrate=9428.3kbits/s speed=  62x    frame=89422 fps=3724 q=-1.0 size= 1717504kB time=00:24:49.67 bitrate=9444.9kbits/s speed=  62x    frame=91117 fps=3717 q=-1.0 size= 1752576kB time=00:25:17.91 bitrate=9458.4kbits/s speed=61.9x    frame=92939 fps=3715 q=-1.0 size= 1790464kB time=00:25:48.26 bitrate=9473.5kbits/s speed=61.9x    frame=94794 fps=3715 q=-1.0 size= 1829120kB time=00:26:19.15 bitrate=9488.7kbits/s speed=61.9x    frame=96411 fps=3706 q=-1.0 size= 1862656kB time=00:26:46.09 bitrate=9500.6kbits/s speed=61.7x    frame=98186 fps=3703 q=-1.0 size= 1899776kB time=00:27:15.66 bitrate=9514.8kbits/s speed=61.7x    frame=100015 fps=3702 q=-1.0 size= 1937664kB time=00:27:46.13 bitrate=9527.0kbits/s speed=61.7x    frame=101856 fps=3702 q=-1.0 size= 1976064kB time=00:28:16.78 bitrate=9540.4kbits/s speed=61.7x    frame=103713 fps=3702 q=-1.0 size= 2014464kB time=00:28:47.73 bitrate=9551.5kbits/s speed=61.7x    frame=105544 fps=3701 q=-1.0 size= 2052608kB time=00:29:18.23 bitrate=9563.5kbits/s speed=61.7x    frame=107274 fps=3697 q=-1.0 size= 2088448kB time=00:29:47.06 bitrate=9573.5kbits/s speed=61.6x    frame=109394 fps=3706 q=-1.0 size= 2127360kB time=00:30:22.32 bitrate=9563.2kbits/s speed=61.7x    frame=111333 fps=3709 q=-1.0 size= 2167808kB time=00:30:54.63 bitrate=9575.3kbits/s speed=61.8x    frame=113573 fps=3721 q=-1.0 size= 2200832kB time=00:31:31.94 bitrate=9529.4kbits/s speed=  62x    frame=115515 fps=3724 q=-1.0 size= 2240768kB time=00:32:04.29 bitrate=9539.3kbits/s speed=  62x    frame=117399 fps=3725 q=-1.0 size= 2279936kB time=00:32:35.65 bitrate=9550.4kbits/s speed=  62x    frame=119113 fps=3720 q=-1.0 size= 2315520kB time=00:33:04.21 bitrate=9559.8kbits/s speed=  62x    frame=121062 fps=3723 q=-1.0 size= 2355968kB time=00:33:36.68 bitrate=9570.2kbits/s speed=  62x    frame=122842 fps=3720 q=-1.0 size= 2392576kB time=00:34:06.32 bitrate=9578.2kbits/s speed=  62x    frame=124399 fps=3711 q=-1.0 size= 2425600kB time=00:34:32.27 bitrate=9588.8kbits/s speed=61.8x    frame=126634 fps=3722 q=-1.0 size= 2466304kB time=00:35:09.50 bitrate=9577.6kbits/s speed=  62x    frame=128559 fps=3724 q=-1.0 size= 2506240kB time=00:35:41.56 bitrate=9587.0kbits/s speed=  62x    frame=130550 fps=3728 q=-1.0 size= 2537984kB time=00:36:14.71 bitrate=9560.4kbits/s speed=62.1x    frame=132122 fps=3719 q=-1.0 size= 2570496kB time=00:36:40.89 bitrate=9567.7kbits/s speed=  62x    frame=133695 fps=3711 q=-1.0 size= 2603264kB time=00:37:07.07 bitrate=9575.7kbits/s speed=61.8x    frame=135325 fps=3705 q=-1.0 size= 2637056kB time=00:37:34.25 bitrate=9583.1kbits/s speed=61.7x    frame=137206 fps=3706 q=-1.0 size= 2676224kB time=00:38:05.56 bitrate=9592.2kbits/s speed=61.7x    frame=138977 fps=3704 q=-1.0 size= 2713088kB time=00:38:35.10 bitrate=9600.3kbits/s speed=61.7x    frame=140755 fps=3702 q=-1.0 size= 2750208kB time=00:39:04.71 bitrate=9608.7kbits/s speed=61.7x    frame=142510 fps=3699 q=-1.0 size= 2786560kB time=00:39:33.92 bitrate=9615.9kbits/s speed=61.6x    frame=144051 fps=3691 q=-1.0 size= 2819072kB time=00:39:59.62 bitrate=9623.9kbits/s speed=61.5x    frame=145823 fps=3689 q=-1.0 size= 2855424kB time=00:40:29.11 bitrate=9629.7kbits/s speed=61.5x    frame=147505 fps=3685 q=-1.0 size= 2890240kB time=00:40:57.15 bitrate=9635.9kbits/s speed=61.4x    frame=149267 fps=3683 q=-1.0 size= 2927104kB time=00:41:26.51 bitrate=9643.6kbits/s speed=61.4x    frame=151194 fps=3685 q=-1.0 size= 2966784kB time=00:41:58.58 bitrate=9649.8kbits/s speed=61.4x    frame=153106 fps=3687 q=-1.0 size= 3006720kB time=00:42:30.41 bitrate=9657.7kbits/s speed=61.4x    frame=154967 fps=3687 q=-1.0 size= 3045376kB time=00:43:01.44 bitrate=9664.3kbits/s speed=61.4x    frame=156809 fps=3687 q=-1.0 size= 3083776kB time=00:43:32.12 bitrate=9671.2kbits/s speed=61.4x    frame=158776 fps=3690 q=-1.0 size= 3124736kB time=00:44:04.89 bitrate=9678.2kbits/s speed=61.5x    frame=160497 fps=3687 q=-1.0 size= 3160320kB time=00:44:33.53 bitrate=9683.6kbits/s speed=61.4x    frame=162577 fps=3693 q=-1.0 size= 3197440kB time=00:45:08.19 bitrate=9671.9kbits/s speed=61.5x    frame=164703 fps=3699 q=-1.0 size= 3237120kB time=00:45:43.61 bitrate=9665.5kbits/s speed=61.6x    frame=166586 fps=3700 q=-1.0 size= 3273472kB time=00:46:14.97 bitrate=9663.6kbits/s speed=61.6x    frame=168515 fps=3701 q=-1.0 size= 3313664kB time=00:46:47.09 bitrate=9670.3kbits/s speed=61.7x    frame=170464 fps=3703 q=-1.0 size= 3354112kB time=00:47:19.57 bitrate=9676.4kbits/s speed=61.7x    frame=172334 fps=3704 q=-1.0 size= 3393024kB time=00:47:50.75 bitrate=9682.4kbits/s speed=61.7x    frame=174127 fps=3703 q=-1.0 size= 3430400kB time=00:48:20.62 bitrate=9688.2kbits/s speed=61.7x    frame=176075 fps=3705 q=-1.0 size= 3470592kB time=00:48:53.04 bitrate=9693.4kbits/s speed=61.7x    frame=177869 fps=3703 q=-1.0 size= 3507968kB time=00:49:22.90 bitrate=9699.0kbits/s speed=61.7x    frame=179800 fps=3705 q=-1.0 size= 3548160kB time=00:49:55.09 bitrate=9704.7kbits/s speed=61.7x    frame=181975 fps=3712 q=-1.0 size= 3593472kB time=00:50:31.33 bitrate=9711.2kbits/s speed=61.8x    frame=183601 fps=3707 q=-1.0 size= 3627008kB time=00:50:58.37 bitrate=9715.1kbits/s speed=61.7x    frame=185371 fps=3705 q=-1.0 size= 3663872kB time=00:51:27.89 bitrate=9720.0kbits/s speed=61.7x    frame=187236 fps=3705 q=-1.0 size= 3702784kB time=00:51:58.95 bitrate=9725.4kbits/s speed=61.7x    frame=188960 fps=3703 q=-1.0 size= 3738368kB time=00:52:27.68 bitrate=9729.3kbits/s speed=61.7x    frame=190851 fps=3704 q=-1.0 size= 3777792kB time=00:52:59.17 bitrate=9734.5kbits/s speed=61.7x    frame=192625 fps=3702 q=-1.0 size= 3814912kB time=00:53:28.69 bitrate=9739.7kbits/s speed=61.7x    frame=194483 fps=3702 q=-1.0 size= 3853312kB time=00:53:59.66 bitrate=9743.7kbits/s speed=61.7x    frame=196602 fps=3707 q=-1.0 size= 3892736kB time=00:54:34.92 bitrate=9737.4kbits/s speed=61.8x    frame=198849 fps=3715 q=-1.0 size= 3932160kB time=00:55:12.38 bitrate=9724.8kbits/s speed=61.9x    frame=200649 fps=3713 q=-1.0 size= 3969280kB time=00:55:42.34 bitrate=9728.6kbits/s speed=61.9x    frame=202497 fps=3713 q=-1.0 size= 4007936kB time=00:56:13.12 bitrate=9733.7kbits/s speed=61.9x    frame=204294 fps=3712 q=-1.0 size= 4045568kB time=00:56:43.05 bitrate=9738.7kbits/s speed=61.8x    frame=206213 fps=3713 q=-1.0 size= 4080640kB time=00:57:14.98 bitrate=9731.8kbits/s speed=61.9x    frame=208128 fps=3714 q=-1.0 size= 4120320kB time=00:57:46.89 bitrate=9736.0kbits/s speed=61.9x    frame=210317 fps=3720 q=-1.0 size= 4158464kB time=00:58:23.35 bitrate=9723.9kbits/s speed=  62x    frame=212058 fps=3718 q=-1.0 size= 4194816kB time=00:58:52.33 bitrate=9728.4kbits/s speed=61.9x    frame=213978 fps=3719 q=-1.0 size= 4234752kB time=00:59:24.32 bitrate=9732.9kbits/s speed=  62x    frame=215726 fps=3717 q=-1.0 size= 4270848kB time=00:59:53.46 bitrate=9736.2kbits/s speed=61.9x    frame=217573 fps=3717 q=-1.0 size= 4309504kB time=01:00:24.23 bitrate=9740.9kbits/s speed=61.9x    frame=219478 fps=3718 q=-1.0 size= 4348928kB time=01:00:55.94 bitrate=9744.8kbits/s speed=61.9x    frame=221169 fps=3715 q=-1.0 size= 4384000kB time=01:01:24.11 bitrate=9748.3kbits/s speed=61.9x    frame=223035 fps=3715 q=-1.0 size= 4422656kB time=01:01:55.21 bitrate=9751.9kbits/s speed=61.9x    frame=224905 fps=3715 q=-1.0 size= 4461824kB time=01:02:26.35 bitrate=9756.5kbits/s speed=61.9x    frame=226568 fps=3712 q=-1.0 size= 4496128kB time=01:02:54.01 bitrate=9759.4kbits/s speed=61.8x    frame=228330 fps=3710 q=-1.0 size= 4533248kB time=01:03:23.37 bitrate=9764.1kbits/s speed=61.8x    frame=230163 fps=3710 q=-1.0 size= 4570880kB time=01:03:53.88 bitrate=9766.8kbits/s speed=61.8x    frame=231768 fps=3706 q=-1.0 size= 4604416kB time=01:04:20.61 bitrate=9770.3kbits/s speed=61.7x    frame=233532 fps=3705 q=-1.0 size= 4641024kB time=01:04:49.99 bitrate=9773.6kbits/s speed=61.7x    frame=235397 fps=3705 q=-1.0 size= 4679680kB time=01:05:21.05 bitrate=9777.0kbits/s speed=61.7x    frame=237206 fps=3704 q=-1.0 size= 4717312kB time=01:05:51.16 bitrate=9780.5kbits/s speed=61.7x    frame=239076 fps=3704 q=-1.0 size= 4756224kB time=01:06:22.30 bitrate=9784.0kbits/s speed=61.7x    frame=241088 fps=3707 q=-1.0 size= 4792064kB time=01:06:55.83 bitrate=9775.4kbits/s speed=61.7x    frame=242913 fps=3706 q=-1.0 size= 4829696kB time=01:07:26.23 bitrate=9778.2kbits/s speed=61.7x    frame=245646 fps=3720 q=-1.0 size= 4868864kB time=01:08:11.76 bitrate=9747.8kbits/s speed=  62x    frame=247630 fps=3721 q=-1.0 size= 4909824kB time=01:08:44.79 bitrate=9751.1kbits/s speed=  62x    frame=249313 fps=3719 q=-1.0 size= 4944896kB time=01:09:12.83 bitrate=9754.4kbits/s speed=61.9x    frame=251217 fps=3719 q=-1.0 size= 4984576kB time=01:09:44.52 bitrate=9758.3kbits/s speed=  62x    frame=252971 fps=3718 q=-1.0 size= 5020928kB time=01:10:13.77 bitrate=9761.2kbits/s speed=61.9x    frame=254729 fps=3716 q=-1.0 size= 5057792kB time=01:10:43.01 bitrate=9765.1kbits/s speed=61.9x    frame=256634 fps=3717 q=-1.0 size= 5097216kB time=01:11:14.76 bitrate=9768.1kbits/s speed=61.9x    frame=258513 fps=3717 q=-1.0 size= 5136128kB time=01:11:46.05 bitrate=9771.2kbits/s speed=61.9x    frame=260553 fps=3720 q=-1.0 size= 5178624kB time=01:12:20.01 bitrate=9774.9kbits/s speed=  62x    frame=262806 fps=3725 q=-1.0 size= 5225472kB time=01:12:57.57 bitrate=9778.7kbits/s speed=62.1x    frame=264907 fps=3729 q=-1.0 size= 5268992kB time=01:13:32.58 bitrate=9781.9kbits/s speed=62.1x    frame=266816 fps=3729 q=-1.0 size= 5308672kB time=01:14:04.37 bitrate=9785.1kbits/s speed=62.1x    frame=268773 fps=3731 q=-1.0 size= 5349632kB time=01:14:36.96 bitrate=9788.8kbits/s speed=62.1x    frame=270452 fps=3728 q=-1.0 size= 5384448kB time=01:15:04.93 bitrate=9791.3kbits/s speed=62.1x    frame=272365 fps=3729 q=-1.0 size= 5424128kB time=01:15:36.77 bitrate=9794.3kbits/s speed=62.1x    frame=274309 fps=3730 q=-1.0 size= 5464320kB time=01:16:09.18 bitrate=9796.9kbits/s speed=62.1x    frame=276124 fps=3729 q=-1.0 size= 5502208kB time=01:16:39.41 bitrate=9800.0kbits/s speed=62.1x    frame=278065 fps=3730 q=-1.0 size= 5542400kB time=01:17:11.71 bitrate=9802.7kbits/s speed=62.1x    frame=280136 fps=3733 q=-1.0 size= 5579776kB time=01:17:46.21 bitrate=9795.9kbits/s speed=62.2x    frame=281761 fps=3730 q=-1.0 size= 5613568kB time=01:18:13.31 bitrate=9798.3kbits/s speed=62.1x    frame=284264 fps=3738 q=-1.0 size= 5653504kB time=01:18:54.96 bitrate=9781.2kbits/s speed=62.3x    frame=286182 fps=3739 q=-1.0 size= 5693184kB time=01:19:26.93 bitrate=9783.8kbits/s speed=62.3x    frame=288020 fps=3738 q=-1.0 size= 5731584kB time=01:19:57.54 bitrate=9786.9kbits/s speed=62.3x    frame=289953 fps=3739 q=-1.0 size= 5771776kB time=01:20:29.72 bitrate=9789.9kbits/s speed=62.3x    frame=292067 fps=3742 q=-1.0 size= 5815552kB time=01:21:04.93 bitrate=9792.7kbits/s speed=62.3x    frame=293924 fps=3742 q=-1.0 size= 5854208kB time=01:21:35.85 bitrate=9795.6kbits/s speed=62.3x    frame=296155 fps=3747 q=-1.0 size= 5900544kB time=01:22:13.02 bitrate=9798.7kbits/s speed=62.4x    frame=298353 fps=3751 q=-1.0 size= 5946368kB time=01:22:49.62 bitrate=9802.1kbits/s speed=62.5x    frame=300312 fps=3752 q=-1.0 size= 5986816kB time=01:23:22.27 bitrate=9804.3kbits/s speed=62.5x    frame=302212 fps=3752 q=-1.0 size= 6026496kB time=01:23:53.92 bitrate=9807.3kbits/s speed=62.5x    frame=303813 fps=3749 q=-1.0 size= 6059776kB time=01:24:20.60 bitrate=9809.4kbits/s speed=62.4x    frame=305473 fps=3746 q=-1.0 size= 6094336kB time=01:24:48.25 bitrate=9811.8kbits/s speed=62.4x    frame=307222 fps=3744 q=-1.0 size= 6130688kB time=01:25:17.36 bitrate=9814.1kbits/s speed=62.4x    frame=309167 fps=3745 q=-1.0 size= 6170880kB time=01:25:49.80 bitrate=9816.3kbits/s speed=62.4x    frame=310861 fps=3743 q=-1.0 size= 6205952kB time=01:26:17.99 bitrate=9818.3kbits/s speed=62.3x    frame=312942 fps=3746 q=-1.0 size= 6245376kB time=01:26:52.65 bitrate=9815.0kbits/s speed=62.4x    frame=315368 fps=3752 q=-1.0 size= 6284544kB time=01:27:33.06 bitrate=9800.6kbits/s speed=62.5x    frame=317156 fps=3751 q=-1.0 size= 6321664kB time=01:28:02.84 bitrate=9802.9kbits/s speed=62.5x    frame=318984 fps=3750 q=-1.0 size= 6359808kB time=01:28:33.30 bitrate=9805.5kbits/s speed=62.5x    frame=320781 fps=3750 q=-1.0 size= 6396928kB time=01:29:03.22 bitrate=9807.5kbits/s speed=62.5x    frame=322432 fps=3747 q=-1.0 size= 6431488kB time=01:29:30.72 bitrate=9810.0kbits/s speed=62.4x    frame=324305 fps=3747 q=-1.0 size= 6470144kB time=01:30:01.90 bitrate=9812.0kbits/s speed=62.4x    frame=326239 fps=3748 q=-1.0 size= 6510336kB time=01:30:34.09 bitrate=9814.5kbits/s speed=62.4x    frame=327828 fps=3744 q=-1.0 size= 6543360kB time=01:31:00.59 bitrate=9816.4kbits/s speed=62.4x    frame=329668 fps=3744 q=-1.0 size= 6581504kB time=01:31:31.22 bitrate=9818.5kbits/s speed=62.4x    frame=331733 fps=3746 q=-1.0 size= 6618880kB time=01:32:05.61 bitrate=9812.8kbits/s speed=62.4x    frame=333537 fps=3745 q=-1.0 size= 6656512kB time=01:32:35.69 bitrate=9815.2kbits/s speed=62.4x    frame=335734 fps=3749 q=-1.0 size= 6694912kB time=01:33:12.27 bitrate=9807.2kbits/s speed=62.4x    frame=337554 fps=3748 q=-1.0 size= 6732800kB time=01:33:42.60 bitrate=9809.5kbits/s speed=62.4x    frame=339365 fps=3748 q=-1.0 size= 6770176kB time=01:34:12.77 bitrate=9811.3kbits/s speed=62.4x    frame=341262 fps=3748 q=-1.0 size= 6809600kB time=01:34:44.37 bitrate=9813.6kbits/s speed=62.4x    frame=343023 fps=3747 q=-1.0 size= 6846208kB time=01:35:13.70 bitrate=9815.7kbits/s speed=62.4x    frame=344596 fps=3743 q=-1.0 size= 6878976kB time=01:35:39.90 bitrate=9817.7kbits/s speed=62.4x    frame=346246 fps=3741 q=-1.0 size= 6913280kB time=01:36:07.38 bitrate=9819.6kbits/s speed=62.3x    frame=347981 fps=3740 q=-1.0 size= 6949376kB time=01:36:36.24 bitrate=9821.7kbits/s speed=62.3x    frame=349759 fps=3739 q=-1.0 size= 6986240kB time=01:37:05.86 bitrate=9823.6kbits/s speed=62.3x    frame=351555 fps=3738 q=-1.0 size= 7023616kB time=01:37:35.78 bitrate=9825.8kbits/s speed=62.3x    frame=353331 fps=3737 q=-1.0 size= 7060736kB time=01:38:05.38 bitrate=9828.0kbits/s speed=62.2x    frame=354977 fps=3734 q=-1.0 size= 7095040kB time=01:38:32.81 bitrate=9829.9kbits/s speed=62.2x    frame=356882 fps=3735 q=-1.0 size= 7134208kB time=01:39:04.53 bitrate=9831.5kbits/s speed=62.2x    frame=358691 fps=3734 q=-1.0 size= 7172096kB time=01:39:34.65 bitrate=9833.8kbits/s speed=62.2x    frame=360557 fps=3734 q=-1.0 size= 7210752kB time=01:40:05.74 bitrate=9835.7kbits/s speed=62.2x    frame=362294 fps=3733 q=-1.0 size= 7247104kB time=01:40:34.69 bitrate=9837.8kbits/s speed=62.2x    frame=363959 fps=3731 q=-1.0 size= 7281664kB time=01:41:02.43 bitrate=9839.5kbits/s speed=62.1x    frame=366109 fps=3734 q=-1.0 size= 7320576kB time=01:41:38.28 bitrate=9833.9kbits/s speed=62.2x    frame=367712 fps=3731 q=-1.0 size= 7353600kB time=01:42:04.97 bitrate=9835.3kbits/s speed=62.1x    frame=369783 fps=3733 q=-1.0 size= 7389696kB time=01:42:39.49 bitrate=9828.1kbits/s speed=62.2x    frame=371670 fps=3733 q=-1.0 size= 7428608kB time=01:43:10.89 bitrate=9829.8kbits/s speed=62.2x    frame=373224 fps=3730 q=-1.0 size= 7461120kB time=01:43:36.77 bitrate=9831.7kbits/s speed=62.1x    frame=375150 fps=3731 q=-1.0 size= 7501056kB time=01:44:08.89 bitrate=9833.5kbits/s speed=62.1x    frame=377011 fps=3731 q=-1.0 size= 7539712kB time=01:44:39.89 bitrate=9835.4kbits/s speed=62.1x    frame=378830 fps=3730 q=-1.0 size= 7577344kB time=01:45:10.17 bitrate=9837.1kbits/s speed=62.1x    frame=380901 fps=3732 q=-1.0 size= 7613696kB time=01:45:44.67 bitrate=9830.5kbits/s speed=62.2x    frame=382591 fps=3730 q=-1.0 size= 7648768kB time=01:46:12.82 bitrate=9832.2kbits/s speed=62.1x    frame=384813 fps=3734 q=-1.0 size= 7687936kB time=01:46:49.84 bitrate=9825.4kbits/s speed=62.2x    frame=386637 fps=3733 q=-1.0 size= 7726080kB time=01:47:20.23 bitrate=9827.6kbits/s speed=62.2x    frame=388518 fps=3733 q=-1.0 size= 7765248kB time=01:47:51.57 bitrate=9829.6kbits/s speed=62.2x    frame=390349 fps=3733 q=-1.0 size= 7803136kB time=01:48:22.05 bitrate=9831.2kbits/s speed=62.2x    frame=392168 fps=3733 q=-1.0 size= 7840768kB time=01:48:52.32 bitrate=9832.9kbits/s speed=62.2x    frame=393855 fps=3731 q=-1.0 size= 7876096kB time=01:49:20.41 bitrate=9834.9kbits/s speed=62.1x    frame=396114 fps=3735 q=-1.0 size= 7915776kB time=01:49:58.06 bitrate=9828.0kbits/s speed=62.2x    frame=397811 fps=3733 q=-1.0 size= 7951104kB time=01:50:26.34 bitrate=9829.8kbits/s speed=62.2x    frame=400041 fps=3736 q=-1.0 size= 7989760kB time=01:51:03.43 bitrate=9822.6kbits/s speed=62.2x    frame=401916 fps=3736 q=-1.0 size= 8028672kB time=01:51:34.69 bitrate=9824.3kbits/s speed=62.2x    frame=403712 fps=3736 q=-1.0 size= 8065792kB time=01:52:04.58 bitrate=9825.9kbits/s speed=62.2x    frame=405599 fps=3736 q=-1.0 size= 8104960kB time=01:52:36.03 bitrate=9827.6kbits/s speed=62.2x    frame=407456 fps=3736 q=-1.0 size= 8143104kB time=01:53:06.96 bitrate=9828.9kbits/s speed=62.2x    frame=409192 fps=3735 q=-1.0 size= 8179456kB time=01:53:35.85 bitrate=9830.9kbits/s speed=62.2x    frame=411094 fps=3735 q=-1.0 size= 8218880kB time=01:54:07.53 bitrate=9832.6kbits/s speed=62.2x    frame=412960 fps=3735 q=-1.0 size= 8257792kB time=01:54:38.60 bitrate=9834.5kbits/s speed=62.2x    frame=414697 fps=3734 q=-1.0 size= 8293888kB time=01:55:07.52 bitrate=9836.2kbits/s speed=62.2x    frame=416637 fps=3734 q=-1.0 size= 8334080kB time=01:55:39.85 bitrate=9837.8kbits/s speed=62.2x    frame=418536 fps=3735 q=-1.0 size= 8373504kB time=01:56:11.45 bitrate=9839.5kbits/s speed=62.2x    frame=420101 fps=3732 q=-1.0 size= 8406272kB time=01:56:37.54 bitrate=9841.2kbits/s speed=62.2x    frame=421979 fps=3732 q=-1.0 size= 8445184kB time=01:57:08.80 bitrate=9842.8kbits/s speed=62.2x    frame=424118 fps=3734 q=-1.0 size= 8484608kB time=01:57:44.43 bitrate=9838.9kbits/s speed=62.2x    frame=426113 fps=3736 q=-1.0 size= 8517888kB time=01:58:17.67 bitrate=9831.2kbits/s speed=62.2x    frame=427999 fps=3736 q=-1.0 size= 8557056kB time=01:58:49.04 bitrate=9832.9kbits/s speed=62.2x    frame=429879 fps=3736 q=-1.0 size= 8595968kB time=01:59:20.39 bitrate=9834.4kbits/s speed=62.2x    frame=431498 fps=3734 q=-1.0 size= 8629760kB time=01:59:47.36 bitrate=9836.0kbits/s speed=62.2x    frame=433367 fps=3734 q=-1.0 size= 8668416kB time=02:00:18.46 bitrate=9837.5kbits/s speed=62.2x    frame=435158 fps=3733 q=-1.0 size= 8705792kB time=02:00:48.29 bitrate=9839.3kbits/s speed=62.2x    frame=436979 fps=3733 q=-1.0 size= 8743680kB time=02:01:18.63 bitrate=9840.9kbits/s speed=62.2x    frame=438857 fps=3733 q=-1.0 size= 8782592kB time=02:01:49.90 bitrate=9842.4kbits/s speed=62.2x    frame=440436 fps=3730 q=-1.0 size= 8815360kB time=02:02:16.18 bitrate=9843.7kbits/s speed=62.1x    frame=442102 fps=3729 q=-1.0 size= 8849920kB time=02:02:43.93 bitrate=9845.1kbits/s speed=62.1x    frame=444012 fps=3729 q=-1.0 size= 8889600kB time=02:03:15.75 bitrate=9846.7kbits/s speed=62.1x    frame=445697 fps=3727 q=-1.0 size= 8924672kB time=02:03:43.81 bitrate=9848.2kbits/s speed=62.1x    frame=447457 fps=3726 q=-1.0 size= 8961536kB time=02:04:13.12 bitrate=9850.0kbits/s speed=62.1x    frame=449633 fps=3729 q=-1.0 size= 9000960kB time=02:04:49.37 bitrate=9845.4kbits/s speed=62.1x    frame=451424 fps=3728 q=-1.0 size= 9038080kB time=02:05:19.20 bitrate=9846.8kbits/s speed=62.1x    frame=453583 fps=3731 q=-1.0 size= 9077248kB time=02:05:55.17 bitrate=9842.4kbits/s speed=62.1x    frame=455510 fps=3731 q=-1.0 size= 9117184kB time=02:06:27.26 bitrate=9843.9kbits/s speed=62.2x    frame=457153 fps=3730 q=-1.0 size= 9151488kB time=02:06:54.62 bitrate=9845.4kbits/s speed=62.1x    frame=459064 fps=3730 q=-1.0 size= 9191168kB time=02:07:26.45 bitrate=9846.9kbits/s speed=62.1x    frame=460869 fps=3729 q=-1.0 size= 9228544kB time=02:07:56.51 bitrate=9848.3kbits/s speed=62.1x    frame=462513 fps=3728 q=-1.0 size= 9262848kB time=02:08:23.88 bitrate=9849.7kbits/s speed=62.1x    frame=464447 fps=3728 q=-1.0 size= 9303040kB time=02:08:56.07 bitrate=9851.3kbits/s speed=62.1x    frame=466384 fps=3729 q=-1.0 size= 9343232kB time=02:09:28.35 bitrate=9852.8kbits/s speed=62.1x    frame=468244 fps=3729 q=-1.0 size= 9382144kB time=02:09:59.36 bitrate=9854.5kbits/s speed=62.1x    frame=470162 fps=3729 q=-1.0 size= 9421824kB time=02:10:31.30 bitrate=9855.8kbits/s speed=62.1x    frame=472096 fps=3730 q=-1.0 size= 9462016kB time=02:11:03.51 bitrate=9857.3kbits/s speed=62.1x    frame=473719 fps=3728 q=-1.0 size= 9495808kB time=02:11:30.54 bitrate=9858.6kbits/s speed=62.1x    frame=475510 fps=3727 q=-1.0 size= 9532928kB time=02:12:00.33 bitrate=9859.9kbits/s speed=62.1x    frame=477302 fps=3727 q=-1.0 size= 9570048kB time=02:12:30.19 bitrate=9861.1kbits/s speed=62.1x    frame=479036 fps=3726 q=-1.0 size= 9606656kB time=02:12:59.09 bitrate=9863.0kbits/s speed=62.1x    frame=481481 fps=3730 q=-1.0 size= 9651712kB time=02:13:39.81 bitrate=9858.9kbits/s speed=62.1x    frame=483825 fps=3734 q=-1.0 size= 9696256kB time=02:14:18.83 bitrate=9856.5kbits/s speed=62.2x    frame=486518 fps=3740 q=-1.0 size= 9741312kB time=02:15:03.71 bitrate=9847.4kbits/s speed=62.3x    frame=488480 fps=3741 q=-1.0 size= 9782272kB time=02:15:36.40 bitrate=9849.1kbits/s speed=62.3x    frame=490392 fps=3741 q=-1.0 size= 9822208kB time=02:16:08.25 bitrate=9850.8kbits/s speed=62.3x    frame=492609 fps=3744 q=-1.0 size= 9868032kB time=02:16:45.17 bitrate=9852.2kbits/s speed=62.4x    frame=494257 fps=3742 q=-1.0 size= 9902336kB time=02:17:12.59 bitrate=9853.5kbits/s speed=62.3x    frame=496100 fps=3742 q=-1.0 size= 9940736kB time=02:17:43.30 bitrate=9855.0kbits/s speed=62.3x    frame=497966 fps=3742 q=-1.0 size= 9979392kB time=02:18:14.39 bitrate=9856.2kbits/s speed=62.3x    frame=499576 fps=3740 q=-1.0 size=10012928kB time=02:18:41.22 bitrate=9857.4kbits/s speed=62.3x    frame=501235 fps=3738 q=-1.0 size=10047232kB time=02:19:08.85 bitrate=9858.5kbits/s speed=62.3x    frame=503113 fps=3738 q=-1.0 size=10086400kB time=02:19:40.11 bitrate=9860.0kbits/s speed=62.3x    frame=504805 fps=3737 q=-1.0 size=10121472kB time=02:20:08.33 bitrate=9861.1kbits/s speed=62.2x    frame=506664 fps=3737 q=-1.0 size=10160128kB time=02:20:39.28 bitrate=9862.4kbits/s speed=62.2x    frame=508804 fps=3739 q=-1.0 size=10204672kB time=02:21:14.96 bitrate=9864.0kbits/s speed=62.3x    frame=510803 fps=3740 q=-1.0 size=10246144kB time=02:21:48.24 bitrate=9865.3kbits/s speed=62.3x    frame=512991 fps=3742 q=-1.0 size=10291712kB time=02:22:24.66 bitrate=9866.9kbits/s speed=62.3x    frame=514787 fps=3742 q=-1.0 size=10328832kB time=02:22:54.59 bitrate=9868.0kbits/s speed=62.3x    frame=516665 fps=3742 q=-1.0 size=10367488kB time=02:23:25.86 bitrate=9868.9kbits/s speed=62.3x    frame=518784 fps=3743 q=-1.0 size=10407424kB time=02:24:01.15 bitrate=9866.5kbits/s speed=62.4x    frame=520713 fps=3744 q=-1.0 size=10445568kB time=02:24:33.29 bitrate=9865.9kbits/s speed=62.4x    frame=522847 fps=3746 q=-1.0 size=10482944kB time=02:25:08.80 bitrate=9860.9kbits/s speed=62.4x    frame=524749 fps=3746 q=-1.0 size=10522368kB time=02:25:40.47 bitrate=9862.1kbits/s speed=62.4x    frame=526616 fps=3746 q=-1.0 size=10561280kB time=02:26:11.58 bitrate=9863.4kbits/s speed=62.4x    frame=528471 fps=3746 q=-1.0 size=10600192kB time=02:26:42.46 bitrate=9865.1kbits/s speed=62.4x    frame=530656 fps=3748 q=-1.0 size=10639872kB time=02:27:18.83 bitrate=9861.2kbits/s speed=62.4x    frame=532936 fps=3751 q=-1.0 size=10677760kB time=02:27:56.82 bitrate=9854.0kbits/s speed=62.5x    frame=534812 fps=3751 q=-1.0 size=10716416kB time=02:28:28.06 bitrate=9855.0kbits/s speed=62.5x    frame=536932 fps=3752 q=-1.0 size=10760448kB time=02:29:03.37 bitrate=9856.4kbits/s speed=62.5x    frame=538751 fps=3752 q=-1.0 size=10798336kB time=02:29:33.65 bitrate=9857.7kbits/s speed=62.5x    frame=540587 fps=3752 q=-1.0 size=10836480kB time=02:30:04.27 bitrate=9858.9kbits/s speed=62.5x    frame=542514 fps=3752 q=-1.0 size=10876672kB time=02:30:36.35 bitrate=9860.4kbits/s speed=62.5x    frame=544215 fps=3751 q=-1.0 size=10912000kB time=02:31:04.66 bitrate=9861.5kbits/s speed=62.5x    frame=546118 fps=3751 q=-1.0 size=10951424kB time=02:31:36.39 bitrate=9862.6kbits/s speed=62.5x    frame=548013 fps=3751 q=-1.0 size=10990848kB time=02:32:07.92 bitrate=9863.9kbits/s speed=62.5x    frame=549819 fps=3751 q=-1.0 size=11028480kB time=02:32:38.02 bitrate=9865.2kbits/s speed=62.5x    frame=551745 fps=3751 q=-1.0 size=11068416kB time=02:33:10.11 bitrate=9866.3kbits/s speed=62.5x    frame=553454 fps=3750 q=-1.0 size=11104256kB time=02:33:38.57 bitrate=9867.7kbits/s speed=62.5x    frame=555420 fps=3750 q=-1.0 size=11139840kB time=02:34:11.30 bitrate=9864.3kbits/s speed=62.5x    frame=557428 fps=3751 q=-1.0 size=11174656kB time=02:34:44.76 bitrate=9859.5kbits/s speed=62.5x    frame=559346 fps=3751 q=-1.0 size=11214592kB time=02:35:16.71 bitrate=9860.8kbits/s speed=62.5x    frame=561140 fps=3751 q=-1.0 size=11251712kB time=02:35:46.59 bitrate=9861.8kbits/s speed=62.5x    frame=562780 fps=3749 q=-1.0 size=11285760kB time=02:36:13.88 bitrate=9862.8kbits/s speed=62.5x    frame=564635 fps=3749 q=-1.0 size=11324416kB time=02:36:44.77 bitrate=9864.1kbits/s speed=62.4x    frame=566456 fps=3749 q=-1.0 size=11362304kB time=02:37:15.11 bitrate=9865.3kbits/s speed=62.4x    frame=568086 fps=3747 q=-1.0 size=11396096kB time=02:37:42.24 bitrate=9866.2kbits/s speed=62.4x    frame=569938 fps=3747 q=-1.0 size=11434496kB time=02:38:13.10 bitrate=9867.3kbits/s speed=62.4x    frame=571671 fps=3746 q=-1.0 size=11470592kB time=02:38:41.95 bitrate=9868.5kbits/s speed=62.4x    frame=573463 fps=3746 q=-1.0 size=11507968kB time=02:39:11.81 bitrate=9869.7kbits/s speed=62.4x    frame=575566 fps=3747 q=-1.0 size=11546368kB time=02:39:46.83 bitrate=9866.4kbits/s speed=62.4x    frame=577439 fps=3747 q=-1.0 size=11585024kB time=02:40:18.01 bitrate=9867.4kbits/s speed=62.4x    frame=579320 fps=3747 q=-1.0 size=11624192kB time=02:40:49.38 bitrate=9868.5kbits/s speed=62.4x    frame=581684 fps=3750 q=-1.0 size=11663616kB time=02:41:28.76 bitrate=9861.8kbits/s speed=62.5x    frame=583465 fps=3750 q=-1.0 size=11700480kB time=02:41:58.42 bitrate=9862.7kbits/s speed=62.5x    frame=585175 fps=3749 q=-1.0 size=11736320kB time=02:42:26.91 bitrate=9864.0kbits/s speed=62.4x    frame=587089 fps=3749 q=-1.0 size=11775744kB time=02:42:58.79 bitrate=9864.9kbits/s speed=62.4x    frame=588938 fps=3749 q=-1.0 size=11814144kB time=02:43:29.59 bitrate=9866.0kbits/s speed=62.4x    frame=590667 fps=3748 q=-1.0 size=11849984kB time=02:43:58.40 bitrate=9867.0kbits/s speed=62.4x    frame=592425 fps=3747 q=-1.0 size=11886848kB time=02:44:27.65 bitrate=9868.3kbits/s speed=62.4x    frame=594299 fps=3747 q=-1.0 size=11925760kB time=02:44:58.88 bitrate=9869.4kbits/s speed=62.4x    frame=595964 fps=3746 q=-1.0 size=11960320kB time=02:45:26.61 bitrate=9870.3kbits/s speed=62.4x    frame=597805 fps=3745 q=-1.0 size=11998464kB time=02:45:57.25 bitrate=9871.3kbits/s speed=62.4x    frame=599703 fps=3746 q=-1.0 size=12037888kB time=02:46:28.89 bitrate=9872.4kbits/s speed=62.4x    frame=601376 fps=3744 q=-1.0 size=12072960kB time=02:46:56.73 bitrate=9873.7kbits/s speed=62.4x    frame=603167 fps=3744 q=-1.0 size=12110080kB time=02:47:26.57 bitrate=9874.6kbits/s speed=62.4x    frame=605014 fps=3744 q=-1.0 size=12148224kB time=02:47:57.33 bitrate=9875.5kbits/s speed=62.4x    frame=606735 fps=3743 q=-1.0 size=12184064kB time=02:48:26.02 bitrate=9876.5kbits/s speed=62.3x    frame=608635 fps=3743 q=-1.0 size=12223744kB time=02:48:57.67 bitrate=9877.7kbits/s speed=62.3x    frame=610552 fps=3743 q=-1.0 size=12263424kB time=02:49:29.62 bitrate=9878.6kbits/s speed=62.3x    frame=612173 fps=3742 q=-1.0 size=12297216kB time=02:49:56.58 bitrate=9879.7kbits/s speed=62.3x    frame=613930 fps=3741 q=-1.0 size=12332288kB time=02:50:25.87 bitrate=9879.5kbits/s speed=62.3x    frame=616032 fps=3742 q=-1.0 size=12368384kB time=02:51:00.86 bitrate=9874.6kbits/s speed=62.3x    frame=619396 fps=3751 q=-1.0 size=12402432kB time=02:51:56.86 bitrate=9848.0kbits/s speed=62.5x    frame=622305 fps=3757 q=-1.0 size=12439040kB time=02:52:45.34 bitrate=9830.9kbits/s speed=62.6x    frame=624991 fps=3762 q=-1.0 size=12476928kB time=02:53:30.06 bitrate=9818.5kbits/s speed=62.7x    frame=627145 fps=3764 q=-1.0 size=12513792kB time=02:54:05.98 bitrate=9813.6kbits/s speed=62.7x    frame=629656 fps=3768 q=-1.0 size=12560640kB time=02:54:47.80 bitrate=9811.1kbits/s speed=62.8x    frame=632184 fps=3772 q=-1.0 size=12603648kB time=02:55:29.92 bitrate=9805.3kbits/s speed=62.8x    frame=634513 fps=3774 q=-1.0 size=12643328kB time=02:56:08.71 bitrate=9800.1kbits/s speed=62.9x    frame=636621 fps=3775 q=-1.0 size=12683264kB time=02:56:43.83 bitrate=9798.5kbits/s speed=62.9x    frame=639133 fps=3779 q=-1.0 size=12717824kB time=02:57:25.70 bitrate=9786.5kbits/s speed=62.9x    frame=640931 fps=3779 q=-1.0 size=12754944kB time=02:57:55.62 bitrate=9787.6kbits/s speed=62.9x    frame=643543 fps=3783 q=-1.0 size=12795648kB time=02:58:39.17 bitrate=9778.9kbits/s speed=  63x    frame=645434 fps=3783 q=-1.0 size=12834560kB time=02:59:10.66 bitrate=9779.9kbits/s speed=  63x    frame=648215 fps=3788 q=-1.0 size=12872960kB time=02:59:57.02 bitrate=9767.1kbits/s speed=63.1x    frame=651139 fps=3794 q=-1.0 size=12912128kB time=03:00:45.70 bitrate=9752.8kbits/s speed=63.2x    frame=653564 fps=3797 q=-1.0 size=12946688kB time=03:01:26.14 bitrate=9742.6kbits/s speed=63.2x    frame=656479 fps=3803 q=-1.0 size=12985856kB time=03:02:14.65 bitrate=9728.7kbits/s speed=63.3x    frame=659205 fps=3808 q=-1.0 size=13022976kB time=03:03:00.09 bitrate=9716.1kbits/s speed=63.4x    frame=662015 fps=3813 q=-1.0 size=13053952kB time=03:03:46.91 bitrate=9697.9kbits/s speed=63.5x    frame=664395 fps=3816 q=-1.0 size=13089280kB time=03:04:26.58 bitrate=9689.3kbits/s speed=63.6x    frame=666523 fps=3817 q=-1.0 size=13128704kB time=03:05:02.02 bitrate=9687.5kbits/s speed=63.6x    frame=668682 fps=3818 q=-1.0 size=13169408kB time=03:05:38.00 bitrate=9686.1kbits/s speed=63.6x    frame=671282 fps=3822 q=-1.0 size=13204224kB time=03:06:21.30 bitrate=9674.1kbits/s speed=63.7x    frame=673149 fps=3822 q=-1.0 size=13239040kB time=03:06:52.40 bitrate=9672.7kbits/s speed=63.7x    frame=675182 fps=3823 q=-1.0 size=13276416kB time=03:07:26.26 bitrate=9670.8kbits/s speed=63.7x    frame=676841 fps=3821 q=-1.0 size=13310976kB time=03:07:53.90 bitrate=9672.2kbits/s speed=63.6x    frame=680145 fps=3829 q=-1.0 size=13346560kB time=03:08:48.93 bitrate=9651.0kbits/s speed=63.8x    frame=684820 fps=3844 q=-1.0 size=13380096kB time=03:10:06.80 bitrate=9609.2kbits/s speed=  64x    frame=690445 fps=3865 q=-1.0 size=13415168kB time=03:11:40.50 bitrate=9555.8kbits/s speed=64.4x    frame=696480 fps=3888 q=-1.0 size=13447936kB time=03:13:21.07 bitrate=9496.1kbits/s speed=64.8x    frame=698557 fps=3889 q=-1.0 size=13480448kB time=03:13:55.65 bitrate=9490.8kbits/s speed=64.8x    frame=700370 fps=3888 q=-1.0 size=13513728kB time=03:14:25.86 bitrate=9489.6kbits/s speed=64.8x    frame=701976 fps=3886 q=-1.0 size=13547264kB time=03:14:52.61 bitrate=9491.4kbits/s speed=64.7x    frame=704646 fps=3890 q=-1.0 size=13586944kB time=03:15:37.09 bitrate=9483.1kbits/s speed=64.8x    frame=707886 fps=3897 q=-1.0 size=13629952kB time=03:16:31.04 bitrate=9469.6kbits/s speed=64.9x    frame=710179 fps=3899 q=-1.0 size=13667328kB time=03:17:09.23 bitrate=9464.9kbits/s speed=64.9x    frame=712227 fps=3900 q=-1.0 size=13707520kB time=03:17:43.35 bitrate=9465.5kbits/s speed=  65x    frame=714999 fps=3904 q=-1.0 size=13747712kB time=03:18:29.57 bitrate=9456.4kbits/s speed=  65x    frame=716968 fps=3904 q=-1.0 size=13782016kB time=03:19:02.36 bitrate=9453.9kbits/s speed=  65x    frame=719631 fps=3908 q=-1.0 size=13828608kB time=03:19:46.74 bitrate=9450.8kbits/s speed=65.1x    frame=721995 fps=3910 q=-1.0 size=13875456kB time=03:20:26.13 bitrate=9451.7kbits/s speed=65.1x    frame=724534 fps=3914 q=-1.0 size=13915904kB time=03:21:08.40 bitrate=9446.1kbits/s speed=65.2x    frame=726793 fps=3915 q=-1.0 size=13962752kB time=03:21:46.06 bitrate=9448.4kbits/s speed=65.2x    frame=731066 fps=3928 q=-1.0 size=14009600kB time=03:22:57.21 bitrate=9424.7kbits/s speed=65.4x    frame=733253 fps=3929 q=-1.0 size=14049536kB time=03:23:33.66 bitrate=9423.4kbits/s speed=65.4x    frame=735983 fps=3933 q=-1.0 size=14085632kB time=03:24:19.16 bitrate=9412.5kbits/s speed=65.5x    frame=737627 fps=3931 q=-1.0 size=14119936kB time=03:24:46.55 bitrate=9414.4kbits/s speed=65.5x    frame=739656 fps=3931 q=-1.0 size=14156288kB time=03:25:20.32 bitrate=9412.8kbits/s speed=65.5x    frame=741706 fps=3932 q=-1.0 size=14198016kB time=03:25:54.51 bitrate=9414.4kbits/s speed=65.5x    frame=743494 fps=3931 q=-1.0 size=14234112kB time=03:26:24.30 bitrate=9415.6kbits/s speed=65.5x    frame=745532 fps=3931 q=-1.0 size=14271744kB time=03:26:58.25 bitrate=9414.7kbits/s speed=65.5x    frame=747584 fps=3932 q=-1.0 size=14311168kB time=03:27:32.43 bitrate=9414.8kbits/s speed=65.5x    frame=749463 fps=3931 q=-1.0 size=14347264kB time=03:28:03.72 bitrate=9414.9kbits/s speed=65.5x    frame=751371 fps=3931 q=-1.0 size=14386688kB time=03:28:35.53 bitrate=9416.8kbits/s speed=65.5x    frame=753597 fps=3932 q=-1.0 size=14427648kB time=03:29:12.61 bitrate=9415.7kbits/s speed=65.5x    frame=755869 fps=3934 q=-1.0 size=14467072kB time=03:29:50.46 bitrate=9413.0kbits/s speed=65.5x    frame=758291 fps=3936 q=-1.0 size=14503936kB time=03:30:30.80 bitrate=9406.9kbits/s speed=65.6x    frame=760324 fps=3937 q=-1.0 size=14543360kB time=03:31:04.67 bitrate=9407.2kbits/s speed=65.6x    frame=762138 fps=3936 q=-1.0 size=14577408kB time=03:31:34.89 bitrate=9406.8kbits/s speed=65.6x    frame=764099 fps=3936 q=-1.0 size=14614272kB time=03:32:07.53 bitrate=9406.4kbits/s speed=65.6x    frame=766769 fps=3939 q=-1.0 size=14653696kB time=03:32:52.01 bitrate=9398.9kbits/s speed=65.6x    frame=769360 fps=3943 q=-1.0 size=14685440kB time=03:33:35.15 bitrate=9387.6kbits/s speed=65.7x    frame=771275 fps=3942 q=-1.0 size=14721024kB time=03:34:07.08 bitrate=9386.9kbits/s speed=65.7x    frame=773458 fps=3943 q=-1.0 size=14760960kB time=03:34:43.44 bitrate=9385.8kbits/s speed=65.7x    frame=775620 fps=3944 q=-1.0 size=14793728kB time=03:35:19.45 bitrate=9380.4kbits/s speed=65.7x    frame=777453 fps=3944 q=-1.0 size=14831872kB time=03:35:50.00 bitrate=9382.4kbits/s speed=65.7x    frame=779748 fps=3945 q=-1.0 size=14870016kB time=03:36:28.19 bitrate=9378.9kbits/s speed=65.7x    frame=782185 fps=3948 q=-1.0 size=14907392kB time=03:37:08.81 bitrate=9373.2kbits/s speed=65.8x    frame=783936 fps=3946 q=-1.0 size=14942208kB time=03:37:38.01 bitrate=9374.1kbits/s speed=65.7x    frame=785938 fps=3947 q=-1.0 size=14981888kB time=03:38:11.36 bitrate=9375.0kbits/s speed=65.7x    frame=788164 fps=3948 q=-1.0 size=15014912kB time=03:38:48.43 bitrate=9369.1kbits/s speed=65.8x    frame=790232 fps=3948 q=-1.0 size=15053824kB time=03:39:22.88 bitrate=9368.8kbits/s speed=65.8x    frame=793097 fps=3953 q=-1.0 size=15090176kB time=03:40:10.61 bitrate=9357.5kbits/s speed=65.8x    frame=795003 fps=3952 q=-1.0 size=15123200kB time=03:40:42.36 bitrate=9355.5kbits/s speed=65.8x    frame=796943 fps=3952 q=-1.0 size=15162624kB time=03:41:14.68 bitrate=9357.1kbits/s speed=65.8x    frame=798819 fps=3952 q=-1.0 size=15198976kB time=03:41:45.89 bitrate=9357.5kbits/s speed=65.8x    frame=801035 fps=3953 q=-1.0 size=15232512kB time=03:42:22.83 bitrate=9352.2kbits/s speed=65.8x    frame=803007 fps=3953 q=-1.0 size=15270912kB time=03:42:55.66 bitrate=9352.8kbits/s speed=65.8x    frame=805800 fps=3957 q=-1.0 size=15306752kB time=03:43:42.22 bitrate=9342.2kbits/s speed=65.9x    frame=807866 fps=3957 q=-1.0 size=15343616kB time=03:44:16.61 bitrate=9340.8kbits/s speed=65.9x    frame=810127 fps=3959 q=-1.0 size=15384320kB time=03:44:54.29 bitrate=9339.4kbits/s speed=65.9x    frame=812438 fps=3960 q=-1.0 size=15425792kB time=03:45:32.76 bitrate=9337.9kbits/s speed=  66x    frame=814225 fps=3959 q=-1.0 size=15459584kB time=03:46:02.52 bitrate=9337.9kbits/s speed=65.9x    frame=816395 fps=3960 q=-1.0 size=15501056kB time=03:46:38.72 bitrate=9338.0kbits/s speed=  66x    frame=818839 fps=3962 q=-1.0 size=15544832kB time=03:47:19.41 bitrate=9336.4kbits/s speed=  66x    frame=821334 fps=3965 q=-1.0 size=15590144kB time=03:48:00.98 bitrate=9335.2kbits/s speed=  66x    frame=823645 fps=3966 q=-1.0 size=15638016kB time=03:48:39.49 bitrate=9337.6kbits/s speed=66.1x    frame=825673 fps=3967 q=-1.0 size=15673600kB time=03:49:13.28 bitrate=9335.8kbits/s speed=66.1x    frame=830350 fps=3980 q=-1.0 size=15714048kB time=03:50:31.12 bitrate=9307.2kbits/s speed=66.3x    frame=832314 fps=3979 q=-1.0 size=15750656kB time=03:51:03.83 bitrate=9306.9kbits/s speed=66.3x    frame=835115 fps=3983 q=-1.0 size=15794176kB time=03:51:50.51 bitrate=9301.3kbits/s speed=66.4x    frame=838216 fps=3989 q=-1.0 size=15832064kB time=03:52:42.14 bitrate=9289.1kbits/s speed=66.4x    frame=840146 fps=3988 q=-1.0 size=15872000kB time=03:53:14.31 bitrate=9291.2kbits/s speed=66.4x    frame=842915 fps=3992 q=-1.0 size=15914752kB time=03:54:00.45 bitrate=9285.6kbits/s speed=66.5x    frame=844922 fps=3992 q=-1.0 size=15951872kB time=03:54:33.90 bitrate=9285.1kbits/s speed=66.5x    frame=847140 fps=3993 q=-1.0 size=15992320kB time=03:55:10.87 bitrate=9284.3kbits/s speed=66.5x    frame=848968 fps=3992 q=-1.0 size=16026624kB time=03:55:41.30 bitrate=9284.2kbits/s speed=66.5x    frame=851071 fps=3993 q=-1.0 size=16064768kB time=03:56:16.35 bitrate=9283.2kbits/s speed=66.5x    frame=853212 fps=3993 q=-1.0 size=16104192kB time=03:56:52.04 bitrate=9282.7kbits/s speed=66.5x    frame=855420 fps=3994 q=-1.0 size=16142336kB time=03:57:28.83 bitrate=9280.6kbits/s speed=66.5x    frame=857960 fps=3997 q=-1.0 size=16182784kB time=03:58:11.11 bitrate=9276.4kbits/s speed=66.6x    frame=860110 fps=3998 q=-1.0 size=16222976kB time=03:58:46.92 bitrate=9276.1kbits/s speed=66.6x    frame=862048 fps=3997 q=-1.0 size=16259584kB time=03:59:19.21 bitrate=9276.2kbits/s speed=66.6x    frame=864261 fps=3998 q=-1.0 size=16299520kB time=03:59:56.07 bitrate=9275.1kbits/s speed=66.6x    frame=866579 fps=4000 q=-1.0 size=16339456kB time=04:00:34.71 bitrate=9273.0kbits/s speed=66.6x    frame=868611 fps=4000 q=-1.0 size=16378624kB time=04:01:08.51 bitrate=9273.5kbits/s speed=66.6x    frame=870624 fps=4000 q=-1.0 size=16415744kB time=04:01:42.06 bitrate=9273.0kbits/s speed=66.6x    frame=872582 fps=4000 q=-1.0 size=16452864kB time=04:02:14.69 bitrate=9273.1kbits/s speed=66.6x    frame=874351 fps=3999 q=-1.0 size=16487424kB time=04:02:44.16 bitrate=9273.8kbits/s speed=66.6x    frame=877130 fps=4002 q=-1.0 size=16526848kB time=04:03:30.44 bitrate=9266.5kbits/s speed=66.7x    frame=879249 fps=4003 q=-1.0 size=16567296kB time=04:04:05.69 bitrate=9266.8kbits/s speed=66.7x    frame=880929 fps=4001 q=-1.0 size=16600832kB time=04:04:33.71 bitrate=9267.9kbits/s speed=66.7x    frame=882993 fps=4002 q=-1.0 size=16640256kB time=04:05:08.07 bitrate=9268.2kbits/s speed=66.7x    frame=884945 fps=4001 q=-1.0 size=16678656kB time=04:05:40.60 bitrate=9269.1kbits/s speed=66.7x    frame=886656 fps=4000 q=-1.0 size=16712192kB time=04:06:09.11 bitrate=9269.8kbits/s speed=66.6x    frame=888689 fps=4000 q=-1.0 size=16752896kB time=04:06:42.98 bitrate=9271.1kbits/s speed=66.6x    frame=890721 fps=4000 q=-1.0 size=16793088kB time=04:07:16.87 bitrate=9272.1kbits/s speed=66.6x    frame=892639 fps=4000 q=-1.0 size=16830976kB time=04:07:48.82 bitrate=9273.1kbits/s speed=66.6x    frame=894628 fps=4000 q=-1.0 size=16870656kB time=04:08:21.96 bitrate=9274.2kbits/s speed=66.6x    frame=896599 fps=4000 q=-1.0 size=16910080kB time=04:08:54.79 bitrate=9275.5kbits/s speed=66.6x    frame=899031 fps=4002 q=-1.0 size=16947200kB time=04:09:35.32 bitrate=9270.7kbits/s speed=66.7x    frame=901034 fps=4002 q=-1.0 size=16987904kB time=04:10:08.72 bitrate=9272.3kbits/s speed=66.7x    frame=903817 fps=4005 q=-1.0 size=17026048kB time=04:10:55.07 bitrate=9264.5kbits/s speed=66.7x    frame=906193 fps=4007 q=-1.0 size=17059072kB time=04:11:34.65 bitrate=9258.1kbits/s speed=66.7x    frame=908109 fps=4006 q=-1.0 size=17098240kB time=04:12:06.56 bitrate=9259.8kbits/s speed=66.7x    frame=911914 fps=4014 q=-1.0 size=17135872kB time=04:13:09.96 bitrate=9241.4kbits/s speed=66.9x    frame=916342 fps=4025 q=-1.0 size=17172480kB time=04:14:23.68 bitrate=9216.4kbits/s speed=  67x    frame=918447 fps=4025 q=-1.0 size=17212160kB time=04:14:58.79 bitrate=9216.5kbits/s speed=67.1x    frame=920275 fps=4025 q=-1.0 size=17248256kB time=04:15:29.25 bitrate=9217.5kbits/s speed=  67x    frame=922063 fps=4024 q=-1.0 size=17282816kB time=04:15:59.02 bitrate=9218.1kbits/s speed=  67x    frame=924371 fps=4025 q=-1.0 size=17316608kB time=04:16:37.46 bitrate=9213.1kbits/s speed=  67x    frame=926655 fps=4026 q=-1.0 size=17351680kB time=04:17:15.49 bitrate=9209.0kbits/s speed=67.1x    frame=928644 fps=4026 q=-1.0 size=17391104kB time=04:17:48.63 bitrate=9210.1kbits/s speed=67.1x    frame=931739 fps=4031 q=-1.0 size=17433600kB time=04:18:40.16 bitrate=9202.0kbits/s speed=67.1x    frame=934493 fps=4034 q=-1.0 size=17479424kB time=04:19:26.04 bitrate=9199.0kbits/s speed=67.2x    frame=936918 fps=4036 q=-1.0 size=17519616kB time=04:20:06.39 bitrate=9196.3kbits/s speed=67.2x    frame=939131 fps=4036 q=-1.0 size=17559296kB time=04:20:43.29 bitrate=9195.4kbits/s speed=67.2x    frame=942324 fps=4041 q=-1.0 size=17601024kB time=04:21:36.48 bitrate=9186.0kbits/s speed=67.3x    frame=944686 fps=4043 q=-1.0 size=17639680kB time=04:22:15.82 bitrate=9183.1kbits/s speed=67.3x    frame=946353 fps=4041 q=-1.0 size=17673984kB time=04:22:43.58 bitrate=9184.8kbits/s speed=67.3x    frame=949517 fps=4046 q=-1.0 size=17714944kB time=04:23:36.29 bitrate=9175.4kbits/s speed=67.4x    frame=951374 fps=4045 q=-1.0 size=17751040kB time=04:24:07.24 bitrate=9176.1kbits/s speed=67.4x    frame=953147 fps=4044 q=-1.0 size=17786368kB time=04:24:36.76 bitrate=9177.3kbits/s speed=67.4x    frame=955615 fps=4046 q=-1.0 size=17821440kB time=04:25:17.88 bitrate=9171.7kbits/s speed=67.4x    frame=957343 fps=4045 q=-1.0 size=17857536kB time=04:25:46.69 bitrate=9173.6kbits/s speed=67.4x    frame=959140 fps=4044 q=-1.0 size=17893632kB time=04:26:16.62 bitrate=9174.9kbits/s speed=67.4x    frame=960947 fps=4043 q=-1.0 size=17929984kB time=04:26:46.71 bitrate=9176.3kbits/s speed=67.3x    frame=962593 fps=4042 q=-1.0 size=17964288kB time=04:27:14.13 bitrate=9178.1kbits/s speed=67.3x    frame=964337 fps=4040 q=-1.0 size=17998848kB time=04:27:43.15 bitrate=9179.2kbits/s speed=67.3x    frame=967053 fps=4043 q=-1.0 size=18039552kB time=04:28:28.40 bitrate=9174.1kbits/s speed=67.3x    frame=969254 fps=4044 q=-1.0 size=18076160kB time=04:29:05.09 bitrate=9171.8kbits/s speed=67.4x    frame=971433 fps=4045 q=-1.0 size=18115584kB time=04:29:41.35 bitrate=9171.2kbits/s speed=67.4x    frame=974250 fps=4048 q=-1.0 size=18155008kB time=04:30:28.30 bitrate=9164.6kbits/s speed=67.4x    frame=976365 fps=4048 q=-1.0 size=18195200kB time=04:31:03.52 bitrate=9165.0kbits/s speed=67.4x    frame=979429 fps=4053 q=-1.0 size=18227712kB time=04:31:54.56 bitrate=9152.6kbits/s speed=67.5x    frame=981833 fps=4054 q=-1.0 size=18263552kB time=04:32:34.60 bitrate=9148.2kbits/s speed=67.5x    frame=983881 fps=4054 q=-1.0 size=18299904kB time=04:33:08.73 bitrate=9147.3kbits/s speed=67.5x    frame=986317 fps=4056 q=-1.0 size=18344704kB time=04:33:49.28 bitrate=9147.1kbits/s speed=67.6x    frame=988881 fps=4058 q=-1.0 size=18390784kB time=04:34:31.99 bitrate=9146.3kbits/s speed=67.6x    frame=991731 fps=4061 q=-1.0 size=18423808kB time=04:35:19.49 bitrate=9136.3kbits/s speed=67.7x    frame=993664 fps=4061 q=-1.0 size=18463744kB time=04:35:51.68 bitrate=9138.3kbits/s speed=67.6x    frame=996375 fps=4064 q=-1.0 size=18503680kB time=04:36:36.82 bitrate=9133.2kbits/s speed=67.7x    frame=998280 fps=4063 q=-1.0 size=18537728kB time=04:37:08.56 bitrate=9132.5kbits/s speed=67.7x    frame=1000645 fps=4065 q=-1.0 size=18576640kB time=04:37:47.97 bitrate=9130.1kbits/s speed=67.7x    frame=1003025 fps=4066 q=-1.0 size=18614528kB time=04:38:27.62 bitrate=9127.0kbits/s speed=67.7x    frame=1005064 fps=4066 q=-1.0 size=18648064kB time=04:39:01.56 bitrate=9124.9kbits/s speed=67.7x    frame=1007226 fps=4067 q=-1.0 size=18685184kB time=04:39:37.55 bitrate=9123.4kbits/s speed=67.7x    frame=1009298 fps=4067 q=-1.0 size=18722304kB time=04:40:12.06 bitrate=9122.8kbits/s speed=67.7x    frame=1011053 fps=4066 q=-1.0 size=18756096kB time=04:40:41.29 bitrate=9123.4kbits/s speed=67.7x    frame=1013156 fps=4066 q=-1.0 size=18796288kB time=04:41:16.34 bitrate=9124.0kbits/s speed=67.7x    frame=1016127 fps=4070 q=-1.0 size=18833152kB time=04:42:05.82 bitrate=9115.1kbits/s speed=67.8x    frame=1019118 fps=4073 q=-1.0 size=18871808kB time=04:42:55.63 bitrate=9107.0kbits/s speed=67.9x    frame=1021238 fps=4074 q=-1.0 size=18913024kB time=04:43:30.97 bitrate=9108.0kbits/s speed=67.9x    frame=1024206 fps=4077 q=-1.0 size=18949888kB time=04:44:20.41 bitrate=9099.3kbits/s speed=67.9x    frame=1027309 fps=4082 q=-1.0 size=18987008kB time=04:45:12.06 bitrate=9089.6kbits/s speed=  68x    frame=1029622 fps=4083 q=-1.0 size=19025152kB time=04:45:50.60 bitrate=9087.4kbits/s speed=  68x    frame=1031844 fps=4083 q=-1.0 size=19062272kB time=04:46:27.63 bitrate=9085.5kbits/s speed=  68x    frame=1034086 fps=4084 q=-1.0 size=19100160kB time=04:47:04.97 bitrate=9083.8kbits/s speed=  68x    frame=1036133 fps=4084 q=-1.0 size=19139328kB time=04:47:39.09 bitrate=9084.5kbits/s speed=  68x    frame=1038995 fps=4087 q=-1.0 size=19175936kB time=04:48:26.76 bitrate=9076.8kbits/s speed=68.1x    frame=1041294 fps=4088 q=-1.0 size=19215104kB time=04:49:05.06 bitrate=9075.2kbits/s speed=68.1x    frame=1043843 fps=4090 q=-1.0 size=19250944kB time=04:49:47.53 bitrate=9069.9kbits/s speed=68.1x    frame=1045645 fps=4089 q=-1.0 size=19285248kB time=04:50:17.55 bitrate=9070.4kbits/s speed=68.1x    frame=1048063 fps=4091 q=-1.0 size=19322624kB time=04:50:57.84 bitrate=9067.0kbits/s speed=68.1x    frame=1050194 fps=4091 q=-1.0 size=19362048kB time=04:51:33.35 bitrate=9067.1kbits/s speed=68.1x    frame=1052086 fps=4091 q=-1.0 size=19396608kB time=04:52:04.85 bitrate=9067.0kbits/s speed=68.1x    frame=1054251 fps=4091 q=-1.0 size=19435264kB time=04:52:40.95 bitrate=9066.3kbits/s speed=68.1x    frame=1056600 fps=4092 q=-1.0 size=19472640kB time=04:53:20.07 bitrate=9063.6kbits/s speed=68.2x    frame=1058646 fps=4092 q=-1.0 size=19506688kB time=04:53:54.15 bitrate=9061.9kbits/s speed=68.2x    frame=1060934 fps=4093 q=-1.0 size=19546112kB time=04:54:32.30 bitrate=9060.6kbits/s speed=68.2x    frame=1063034 fps=4093 q=-1.0 size=19585024kB time=04:55:07.26 bitrate=9060.7kbits/s speed=68.2x    frame=1065298 fps=4094 q=-1.0 size=19618048kB time=04:55:44.99 bitrate=9056.7kbits/s speed=68.2x    frame=1067662 fps=4095 q=-1.0 size=19656448kB time=04:56:24.38 bitrate=9054.3kbits/s speed=68.2x    frame=1070859 fps=4100 q=-1.0 size=19693568kB time=04:57:17.64 bitrate=9044.3kbits/s speed=68.3x    frame=1072745 fps=4099 q=-1.0 size=19729408kB time=04:57:49.06 bitrate=9044.9kbits/s speed=68.3x    frame=1074624 fps=4099 q=-1.0 size=19766784kB time=04:58:20.37 bitrate=9046.2kbits/s speed=68.3x    frame=1076751 fps=4099 q=-1.0 size=19806976kB time=04:58:55.82 bitrate=9046.6kbits/s speed=68.3x    frame=1078329 fps=4097 q=-1.0 size=19839744kB time=04:59:22.10 bitrate=9048.3kbits/s speed=68.2x    frame=1080622 fps=4098 q=-1.0 size=19879424kB time=05:00:00.32 bitrate=9047.2kbits/s speed=68.3x    frame=1082691 fps=4098 q=-1.0 size=19917312kB time=05:00:34.78 bitrate=9047.1kbits/s speed=68.3x    frame=1084703 fps=4098 q=-1.0 size=19954688kB time=05:01:08.29 bitrate=9047.3kbits/s speed=68.3x    frame=1086797 fps=4098 q=-1.0 size=19997952kB time=05:01:43.18 bitrate=9049.4kbits/s speed=68.3x    frame=1088869 fps=4098 q=-1.0 size=20038656kB time=05:02:17.73 bitrate=9050.6kbits/s speed=68.3x    frame=1091796 fps=4101 q=-1.0 size=20070400kB time=05:03:06.51 bitrate=9040.6kbits/s speed=68.3x    frame=1094154 fps=4103 q=-1.0 size=20103424kB time=05:03:45.79 bitrate=9035.9kbits/s speed=68.3x    frame=1096806 fps=4105 q=-1.0 size=20142080kB time=05:04:29.98 bitrate=9031.4kbits/s speed=68.4x    frame=1099621 fps=4108 q=-1.0 size=20175872kB time=05:05:16.88 bitrate=9023.4kbits/s speed=68.4x    frame=1102350 fps=4110 q=-1.0 size=20208384kB time=05:06:02.34 bitrate=9015.6kbits/s speed=68.5x    frame=1104724 fps=4111 q=-1.0 size=20240640kB time=05:06:41.90 bitrate=9010.6kbits/s speed=68.5x    frame=1106561 fps=4111 q=-1.0 size=20279040kB time=05:07:12.49 bitrate=9012.7kbits/s speed=68.5x    frame=1108849 fps=4111 q=-1.0 size=20317184kB time=05:07:50.61 bitrate=9011.0kbits/s speed=68.5x    frame=1110787 fps=4111 q=-1.0 size=20352000kB time=05:08:22.88 bitrate=9010.7kbits/s speed=68.5x    frame=1112640 fps=4110 q=-1.0 size=20390144kB time=05:08:53.78 bitrate=9012.5kbits/s speed=68.5x    frame=1114365 fps=4109 q=-1.0 size=20425216kB time=05:09:22.54 bitrate=9014.0kbits/s speed=68.4x    frame=1116045 fps=4108 q=-1.0 size=20460032kB time=05:09:50.50 bitrate=9015.8kbits/s speed=68.4x    frame=1118415 fps=4109 q=-1.0 size=20498944kB time=05:10:29.99 bitrate=9013.8kbits/s speed=68.4x    frame=1120082 fps=4107 q=-1.0 size=20533504kB time=05:10:57.76 bitrate=9015.6kbits/s speed=68.4x    frame=1122968 fps=4110 q=-1.0 size=20571648kB time=05:11:45.86 bitrate=9009.1kbits/s speed=68.5x    frame=1124776 fps=4109 q=-1.0 size=20608768kB time=05:12:15.93 bitrate=9010.9kbits/s speed=68.5x    frame=1126775 fps=4109 q=-1.0 size=20644352kB time=05:12:49.27 bitrate=9010.4kbits/s speed=68.5x    frame=1129107 fps=4110 q=-1.0 size=20679936kB time=05:13:28.14 bitrate=9007.3kbits/s speed=68.5x    frame=1131517 fps=4112 q=-1.0 size=20715520kB time=05:14:08.30 bitrate=9003.5kbits/s speed=68.5x    frame=1133595 fps=4112 q=-1.0 size=20748544kB time=05:14:42.92 bitrate=9001.4kbits/s speed=68.5x    frame=1135903 fps=4113 q=-1.0 size=20784384kB time=05:15:21.37 bitrate=8998.6kbits/s speed=68.5x    frame=1137709 fps=4112 q=-1.0 size=20817408kB time=05:15:51.44 bitrate=8998.6kbits/s speed=68.5x    frame=1139412 fps=4110 q=-1.0 size=20847104kB time=05:16:19.85 bitrate=8997.9kbits/s speed=68.5x    frame=1141601 fps=4111 q=-1.0 size=20886528kB time=05:16:56.31 bitrate=8997.7kbits/s speed=68.5x    frame=1143802 fps=4111 q=-1.0 size=20925440kB time=05:17:32.95 bitrate=8997.1kbits/s speed=68.5x    frame=1145700 fps=4111 q=-1.0 size=20959488kB time=05:18:04.58 bitrate=8996.8kbits/s speed=68.5x    frame=1147729 fps=4111 q=-1.0 size=20999424kB time=05:18:38.37 bitrate=8998.0kbits/s speed=68.5x    frame=1149581 fps=4110 q=-1.0 size=21036800kB time=05:19:09.20 bitrate=8999.5kbits/s speed=68.5x    frame=1151683 fps=4110 q=-1.0 size=21075968kB time=05:19:44.20 bitrate=8999.8kbits/s speed=68.5x    frame=1153763 fps=4110 q=-1.0 size=21117184kB time=05:20:18.87 bitrate=9001.2kbits/s speed=68.5x    frame=1155982 fps=4111 q=-1.0 size=21157120kB time=05:20:55.85 bitrate=9000.9kbits/s speed=68.5x    frame=1157896 fps=4110 q=-1.0 size=21192704kB time=05:21:27.71 bitrate=9001.1kbits/s speed=68.5x    frame=1160228 fps=4111 q=-1.0 size=21233408kB time=05:22:06.56 bitrate=9000.3kbits/s speed=68.5x    frame=1162205 fps=4111 q=-1.0 size=21273088kB time=05:22:39.49 bitrate=9001.7kbits/s speed=68.5x    frame=1163959 fps=4110 q=-1.0 size=21305600kB time=05:23:08.72 bitrate=9001.9kbits/s speed=68.5x    frame=1165952 fps=4110 q=-1.0 size=21345536kB time=05:23:41.90 bitrate=9003.4kbits/s speed=68.5x    frame=1168515 fps=4111 q=-1.0 size=21383936kB time=05:24:24.59 bitrate=8999.8kbits/s speed=68.5x    frame=1170811 fps=4112 q=-1.0 size=21423616kB time=05:25:02.87 bitrate=8998.8kbits/s speed=68.5x    frame=1173745 fps=4115 q=-1.0 size=21465088kB time=05:25:51.71 bitrate=8993.7kbits/s speed=68.6x    frame=1175951 fps=4116 q=-1.0 size=21505024kB time=05:26:28.49 bitrate=8993.5kbits/s speed=68.6x    frame=1178865 fps=4119 q=-1.0 size=21544960kB time=05:27:17.01 bitrate=8987.9kbits/s speed=68.6x    frame=1181074 fps=4119 q=-1.0 size=21587200kB time=05:27:53.81 bitrate=8988.7kbits/s speed=68.6x    frame=1183446 fps=4120 q=-1.0 size=21628160kB time=05:28:33.29 bitrate=8987.7kbits/s speed=68.6x    frame=1186442 fps=4124 q=-1.0 size=21666560kB time=05:29:23.23 bitrate=8980.9kbits/s speed=68.7x    frame=1189001 fps=4125 q=-1.0 size=21700096kB time=05:30:05.86 bitrate=8975.5kbits/s speed=68.7x    frame=1191492 fps=4127 q=-1.0 size=21741312kB time=05:30:47.37 bitrate=8973.7kbits/s speed=68.7x    frame=1193852 fps=4128 q=-1.0 size=21780736kB time=05:31:26.69 bitrate=8972.2kbits/s speed=68.8x    frame=1196179 fps=4129 q=-1.0 size=21819392kB time=05:32:05.46 bitrate=8970.7kbits/s speed=68.8x    frame=1198667 fps=4130 q=-1.0 size=21860096kB time=05:32:46.91 bitrate=8968.7kbits/s speed=68.8x    frame=1200745 fps=4130 q=-1.0 size=21893632kB time=05:33:21.53 bitrate=8966.9kbits/s speed=68.8x    frame=1203050 fps=4131 q=-1.0 size=21930240kB time=05:33:59.90 bitrate=8964.7kbits/s speed=68.8x    frame=1205510 fps=4132 q=-1.0 size=21970688kB time=05:34:40.91 bitrate=8962.9kbits/s speed=68.8x    frame=1207630 fps=4133 q=-1.0 size=22005760kB time=05:35:16.22 bitrate=8961.5kbits/s speed=68.8x    frame=1210189 fps=4134 q=-1.0 size=22040064kB time=05:35:58.85 bitrate=8956.5kbits/s speed=68.9x    frame=1212430 fps=4135 q=-1.0 size=22076672kB time=05:36:36.19 bitrate=8954.8kbits/s speed=68.9x    frame=1214367 fps=4134 q=-1.0 size=22113280kB time=05:37:08.44 bitrate=8955.3kbits/s speed=68.9x    frame=1216369 fps=4134 q=-1.0 size=22151936kB time=05:37:41.79 bitrate=8956.2kbits/s speed=68.9x    frame=1219584 fps=4138 q=-1.0 size=22187776kB time=05:38:35.39 bitrate=8947.0kbits/s speed=68.9x    frame=1221373 fps=4137 q=-1.0 size=22220288kB time=05:39:05.19 bitrate=8947.0kbits/s speed=68.9x    frame=1223593 fps=4138 q=-1.0 size=22259968kB time=05:39:42.17 bitrate=8946.7kbits/s speed=68.9x    frame=1226541 fps=4141 q=-1.0 size=22297856kB time=05:40:31.25 bitrate=8940.4kbits/s speed=  69x    frame=1228517 fps=4140 q=-1.0 size=22336256kB time=05:41:04.20 bitrate=8941.4kbits/s speed=  69x    frame=1230340 fps=4139 q=-1.0 size=22374144kB time=05:41:34.55 bitrate=8943.3kbits/s speed=  69x    frame=1232900 fps=4141 q=-1.0 size=22411520kB time=05:42:17.20 bitrate=8939.6kbits/s speed=  69x    frame=1235039 fps=4141 q=-1.0 size=22451712kB time=05:42:52.82 bitrate=8940.2kbits/s speed=  69x    frame=1237203 fps=4142 q=-1.0 size=22491136kB time=05:43:28.90 bitrate=8940.2kbits/s speed=  69x    frame=1239383 fps=4142 q=-1.0 size=22532608kB time=05:44:05.21 bitrate=8940.9kbits/s speed=  69x    frame=1241229 fps=4141 q=-1.0 size=22567936kB time=05:44:35.96 bitrate=8941.6kbits/s speed=  69x    frame=1243416 fps=4142 q=-1.0 size=22606080kB time=05:45:12.41 bitrate=8941.0kbits/s speed=  69x    frame=1245522 fps=4142 q=-1.0 size=22643968kB time=05:45:47.47 bitrate=8940.8kbits/s speed=  69x    frame=1247459 fps=4141 q=-1.0 size=22678528kB time=05:46:19.75 bitrate=8940.6kbits/s speed=  69x    frame=1249562 fps=4141 q=-1.0 size=22718464kB time=05:46:54.77 bitrate=8941.2kbits/s speed=  69x    frame=1252655 fps=4145 q=-1.0 size=22756352kB time=05:47:46.31 bitrate=8934.0kbits/s speed=  69x    frame=1257462 fps=4154 q=-1.0 size=22792192kB time=05:49:06.40 bitrate=8913.9kbits/s speed=69.2x    frame=1259853 fps=4155 q=-1.0 size=22835200kB time=05:49:46.22 bitrate=8913.7kbits/s speed=69.2x    frame=1262239 fps=4156 q=-1.0 size=22881024kB time=05:50:25.96 bitrate=8914.8kbits/s speed=69.2x    frame=1264631 fps=4157 q=-1.0 size=22926592kB time=05:51:05.79 bitrate=8915.6kbits/s speed=69.2x    frame=1267049 fps=4158 q=-1.0 size=22973184kB time=05:51:46.09 bitrate=8916.7kbits/s speed=69.3x    frame=1269544 fps=4159 q=-1.0 size=23009792kB time=05:52:27.65 bitrate=8913.3kbits/s speed=69.3x    frame=1271580 fps=4159 q=-1.0 size=23050240kB time=05:53:01.58 bitrate=8914.7kbits/s speed=69.3x    frame=1273504 fps=4159 q=-1.0 size=23088128kB time=05:53:33.63 bitrate=8915.9kbits/s speed=69.3x    frame=1275601 fps=4159 q=-1.0 size=23127552kB time=05:54:08.53 bitrate=8916.4kbits/s speed=69.3x    frame=1277679 fps=4159 q=-1.0 size=23169792kB time=05:54:43.18 bitrate=8918.2kbits/s speed=69.3x    frame=1280429 fps=4161 q=-1.0 size=23210496kB time=05:55:28.95 bitrate=8914.7kbits/s speed=69.3x    frame=1282555 fps=4161 q=-1.0 size=23246080kB time=05:56:04.39 bitrate=8913.5kbits/s speed=69.3x    frame=1284850 fps=4162 q=-1.0 size=23285504kB time=05:56:42.62 bitrate=8912.7kbits/s speed=69.3x    frame=1286812 fps=4161 q=-1.0 size=23320832kB time=05:57:15.32 bitrate=8912.6kbits/s speed=69.3x    frame=1289102 fps=4162 q=-1.0 size=23359232kB time=05:57:53.46 bitrate=8911.4kbits/s speed=69.3x    frame=1291766 fps=4164 q=-1.0 size=23400960kB time=05:58:37.84 bitrate=8908.9kbits/s speed=69.4x    frame=1293655 fps=4163 q=-1.0 size=23440896kB time=05:59:09.31 bitrate=8911.1kbits/s speed=69.4x    frame=1296727 fps=4166 q=-1.0 size=23472896kB time=06:00:00.49 bitrate=8902.1kbits/s speed=69.4x    frame=1299690 fps=4169 q=-1.0 size=23507968kB time=06:00:49.86 bitrate=8895.1kbits/s speed=69.4x    frame=1302990 fps=4173 q=-1.0 size=23546624kB time=06:01:44.81 bitrate=8887.1kbits/s speed=69.5x    frame=1306116 fps=4176 q=-1.0 size=23582720kB time=06:02:36.91 bitrate=8879.5kbits/s speed=69.6x    frame=1308886 fps=4178 q=-1.0 size=23616256kB time=06:03:23.04 bitrate=8873.3kbits/s speed=69.6x    frame=1312430 fps=4183 q=-1.0 size=23651840kB time=06:04:22.10 bitrate=8862.6kbits/s speed=69.7x    frame=1315862 fps=4187 q=-1.0 size=23685888kB time=06:05:19.25 bitrate=8852.3kbits/s speed=69.8x    frame=1318531 fps=4189 q=-1.0 size=23725056kB time=06:06:03.74 bitrate=8848.9kbits/s speed=69.8x    frame=1320477 fps=4189 q=-1.0 size=23765504kB time=06:06:36.19 bitrate=8850.9kbits/s speed=69.8x    frame=1322496 fps=4188 q=-1.0 size=23800064kB time=06:07:09.80 bitrate=8850.3kbits/s speed=69.8x    frame=1324451 fps=4188 q=-1.0 size=23838976kB time=06:07:42.36 bitrate=8851.7kbits/s speed=69.8x    frame=1326479 fps=4188 q=-1.0 size=23877376kB time=06:08:16.17 bitrate=8852.4kbits/s speed=69.8x    frame=1329151 fps=4190 q=-1.0 size=23912960kB time=06:09:00.69 bitrate=8847.7kbits/s speed=69.8x    frame=1330811 fps=4188 q=-1.0 size=23947520kB time=06:09:28.35 bitrate=8849.5kbits/s speed=69.8x    frame=1333398 fps=4190 q=-1.0 size=23986688kB time=06:10:11.44 bitrate=8846.7kbits/s speed=69.8x    frame=1335269 fps=4189 q=-1.0 size=24021248kB time=06:10:42.63 bitrate=8847.1kbits/s speed=69.8x    frame=1337267 fps=4189 q=-1.0 size=24059648kB time=06:11:15.91 bitrate=8848.0kbits/s speed=69.8x    frame=1339336 fps=4189 q=-1.0 size=24098048kB time=06:11:50.39 bitrate=8848.4kbits/s speed=69.8x    frame=1342057 fps=4191 q=-1.0 size=24131072kB time=06:12:35.72 bitrate=8842.6kbits/s speed=69.8x    frame=1344323 fps=4191 q=-1.0 size=24170240kB time=06:13:13.45 bitrate=8842.0kbits/s speed=69.8x    frame=1346438 fps=4191 q=-1.0 size=24208128kB time=06:13:48.72 bitrate=8841.9kbits/s speed=69.8x    frame=1348324 fps=4191 q=-1.0 size=24241408kB time=06:14:20.12 bitrate=8841.7kbits/s speed=69.8x    frame=1350374 fps=4190 q=-1.0 size=24279296kB time=06:14:54.29 bitrate=8842.1kbits/s speed=69.8x    frame=1352246 fps=4190 q=-1.0 size=24314368kB time=06:15:25.44 bitrate=8842.6kbits/s speed=69.8x    frame=1354996 fps=4192 q=-1.0 size=24348416kB time=06:16:11.29 bitrate=8837.0kbits/s speed=69.8x    frame=1358066 fps=4195 q=-1.0 size=24384768kB time=06:17:02.43 bitrate=8830.2kbits/s speed=69.9x    frame=1361434 fps=4199 q=-1.0 size=24422144kB time=06:17:58.55 bitrate=8821.8kbits/s speed=69.9x    frame=1363515 fps=4199 q=-1.0 size=24458752kB time=06:18:33.22 bitrate=8821.6kbits/s speed=69.9x    frame=1366051 fps=4200 q=-1.0 size=24500224kB time=06:19:15.46 bitrate=8820.1kbits/s speed=  70x    frame=1368310 fps=4200 q=-1.0 size=24538880kB time=06:19:53.11 bitrate=8819.4kbits/s speed=  70x    frame=1370189 fps=4200 q=-1.0 size=24573184kB time=06:20:24.40 bitrate=8819.7kbits/s speed=  70x    frame=1372316 fps=4200 q=-1.0 size=24612352kB time=06:20:59.87 bitrate=8820.0kbits/s speed=  70x    frame=1374267 fps=4199 q=-1.0 size=24649728kB time=06:21:32.38 bitrate=8820.9kbits/s speed=  70x    frame=1376035 fps=4198 q=-1.0 size=24683264kB time=06:22:01.83 bitrate=8821.5kbits/s speed=69.9x    frame=1377972 fps=4198 q=-1.0 size=24721408kB time=06:22:34.13 bitrate=8822.7kbits/s speed=69.9x    frame=1380237 fps=4198 q=-1.0 size=24761856kB time=06:23:11.84 bitrate=8822.7kbits/s speed=69.9x    frame=1382117 fps=4198 q=-1.0 size=24800256kB time=06:23:43.19 bitrate=8824.3kbits/s speed=69.9x    frame=1384900 fps=4200 q=-1.0 size=24839680kB time=06:24:29.54 bitrate=8820.6kbits/s speed=  70x    frame=1387400 fps=4201 q=-1.0 size=24879616kB time=06:25:11.20 bitrate=8818.8kbits/s speed=  70x    frame=1389579 fps=4201 q=-1.0 size=24919552kB time=06:25:47.51 bitrate=8819.1kbits/s speed=  70x    frame=1391474 fps=4201 q=-1.0 size=24958976kB time=06:26:19.07 bitrate=8821.1kbits/s speed=  70x    frame=1393171 fps=4199 q=-1.0 size=24994304kB time=06:26:47.33 bitrate=8822.8kbits/s speed=  70x    frame=1395022 fps=4199 q=-1.0 size=25031680kB time=06:27:18.17 bitrate=8824.3kbits/s speed=69.9x    frame=1397115 fps=4199 q=-1.0 size=25075200kB time=06:27:53.03 bitrate=8826.4kbits/s speed=69.9x    frame=1398921 fps=4198 q=-1.0 size=25112576kB time=06:28:23.12 bitrate=8828.1kbits/s speed=69.9x    frame=1400895 fps=4197 q=-1.0 size=25153024kB time=06:28:56.00 bitrate=8829.9kbits/s speed=69.9x    frame=1402862 fps=4197 q=-1.0 size=25193984kB time=06:29:28.78 bitrate=8831.8kbits/s speed=69.9x    frame=1404507 fps=4196 q=-1.0 size=25228288kB time=06:29:56.19 bitrate=8833.5kbits/s speed=69.9x    frame=1406390 fps=4195 q=-1.0 size=25267200kB time=06:30:27.53 bitrate=8835.3kbits/s speed=69.9x    frame=1408302 fps=4194 q=-1.0 size=25307136kB time=06:30:59.41 bitrate=8837.2kbits/s speed=69.9x    frame=1409998 fps=4193 q=-1.0 size=25342464kB time=06:31:27.66 bitrate=8838.9kbits/s speed=69.8x    frame=1411846 fps=4192 q=-1.0 size=25380864kB time=06:31:58.46 bitrate=8840.7kbits/s speed=69.8x    frame=1413788 fps=4192 q=-1.0 size=25421312kB time=06:32:30.81 bitrate=8842.6kbits/s speed=69.8x    frame=1415483 fps=4191 q=-1.0 size=25456384kB time=06:32:59.04 bitrate=8844.2kbits/s speed=69.8x    frame=1417288 fps=4190 q=-1.0 size=25494016kB time=06:33:29.08 bitrate=8846.0kbits/s speed=69.8x    frame=1419242 fps=4189 q=-1.0 size=25534720kB time=06:34:01.68 bitrate=8848.0kbits/s speed=69.8x    frame=1421169 fps=4189 q=-1.0 size=25574656kB time=06:34:33.73 bitrate=8849.8kbits/s speed=69.8x    frame=1423002 fps=4188 q=-1.0 size=25612800kB time=06:35:04.27 bitrate=8851.6kbits/s speed=69.8x    frame=1424686 fps=4187 q=-1.0 size=25648128kB time=06:35:32.31 bitrate=8853.3kbits/s speed=69.7x    frame=1426356 fps=4186 q=-1.0 size=25682432kB time=06:36:00.16 bitrate=8854.8kbits/s speed=69.7x    frame=1428275 fps=4185 q=-1.0 size=25722368kB time=06:36:32.12 bitrate=8856.6kbits/s speed=69.7x    frame=1430103 fps=4184 q=-1.0 size=25760512kB time=06:37:02.56 bitrate=8858.4kbits/s speed=69.7x    frame=1431992 fps=4184 q=-1.0 size=25799680kB time=06:37:34.01 bitrate=8860.2kbits/s speed=69.7x    frame=1433880 fps=4183 q=-1.0 size=25838848kB time=06:38:05.48 bitrate=8861.9kbits/s speed=69.7x    frame=1435698 fps=4182 q=-1.0 size=25874944kB time=06:38:35.75 bitrate=8863.1kbits/s speed=69.7x    frame=1437551 fps=4182 q=-1.0 size=25913344kB time=06:39:06.63 bitrate=8864.8kbits/s speed=69.7x    frame=1439488 fps=4181 q=-1.0 size=25953792kB time=06:39:38.88 bitrate=8866.7kbits/s speed=69.7x    frame=1441274 fps=4180 q=-1.0 size=25990912kB time=06:40:08.63 bitrate=8868.4kbits/s speed=69.6x    frame=1443086 fps=4180 q=-1.0 size=26028288kB time=06:40:38.84 bitrate=8870.0kbits/s speed=69.6x    frame=1444969 fps=4179 q=-1.0 size=26067712kB time=06:41:10.20 bitrate=8871.8kbits/s speed=69.6x    frame=1446795 fps=4178 q=-1.0 size=26105600kB time=06:41:40.61 bitrate=8873.5kbits/s speed=69.6x    frame=1448673 fps=4178 q=-1.0 size=26144512kB time=06:42:11.90 bitrate=8875.2kbits/s speed=69.6x    frame=1450596 fps=4177 q=-1.0 size=26184704kB time=06:42:43.91 bitrate=8877.1kbits/s speed=69.6x    frame=1452337 fps=4176 q=-1.0 size=26220800kB time=06:43:12.92 bitrate=8878.7kbits/s speed=69.6x    frame=1454315 fps=4176 q=-1.0 size=26262016kB time=06:43:45.89 bitrate=8880.5kbits/s speed=69.6x    frame=1456197 fps=4175 q=-1.0 size=26301440kB time=06:44:17.22 bitrate=8882.4kbits/s speed=69.5x    frame=1458089 fps=4175 q=-1.0 size=26340352kB time=06:44:48.71 bitrate=8884.0kbits/s speed=69.5x    frame=1460015 fps=4174 q=-1.0 size=26380544kB time=06:45:20.80 bitrate=8885.8kbits/s speed=69.5x    frame=1461899 fps=4174 q=-1.0 size=26419712kB time=06:45:52.18 bitrate=8887.5kbits/s speed=69.5x    frame=1463767 fps=4173 q=-1.0 size=26458368kB time=06:46:23.27 bitrate=8889.2kbits/s speed=69.5x    frame=1465714 fps=4173 q=-1.0 size=26499072kB time=06:46:55.72 bitrate=8891.0kbits/s speed=69.5x    frame=1467103 fps=4172 q=-1.0 Lsize=26527907kB time=06:47:18.84 bitrate=8892.3kbits/s speed=69.5x    
video:25895887kB audio:582898kB subtitle:0kB other streams:0kB global headers:0kB muxing overhead: 0.185513%
